<svg xmlns="http://www.w3.org/2000/svg" width="64" height="64" viewBox="0 0 64 64" fill="none">
  <path d="M48 32C48 27.5817 44.4183 24 40 24C35.5817 24 32 27.5817 32 32C32 36.4183 35.5817 40 40 40C44.4183 40 48 36.4183 48 32Z" stroke="#280068" stroke-width="3"/>
  <path d="M16 32C16 27.5817 19.5817 24 24 24C28.4183 24 32 27.5817 32 32C32 36.4183 28.4183 40 24 40C19.5817 40 16 36.4183 16 32Z" stroke="#280068" stroke-width="3"/>
  <path d="M24 40C19.5817 40 16 36.4183 16 32C16 27.5817 19.5817 24 24 24C28.4183 24 32 27.5817 32 32C32 36.4183 35.5817 40 40 40C44.4183 40 48 36.4183 48 32C48 27.5817 44.4183 24 40 24C35.5817 24 32 27.5817 32 32" stroke="#280068" stroke-width="3"/>
</svg> 