<?xml version="1.0" encoding="utf-8"?>
<!-- Generator: Adobe Illustrator 28.0.0, SVG Export Plug-In . SVG Version: 6.00 Build 0)  -->
<svg version="1.1" id="Layer_1" xmlns="http://www.w3.org/2000/svg" xmlns:xlink="http://www.w3.org/1999/xlink" x="0px" y="0px"
	 viewBox="0 0 1280 720" style="enable-background:new 0 0 1280 720;" xml:space="preserve">
<style type="text/css">
	.st0{display:none;}
	.st1{display:inline;}
	.st2{display:inline;clip-path:url(#SVGID_00000093153709603827978470000010942828488874502306_);}
	.st3{fill:#969696;}
	.st4{fill:#87ABB1;}
</style>
<g class="st0">
	<defs>
		<rect id="SVGID_1_" x="-38.8" y="-24.5" width="1351.3" height="759.9"/>
	</defs>
	<clipPath id="SVGID_00000085929204851963719110000017605411767742691005_" class="st1">
		<use xlink:href="#SVGID_1_"  style="overflow:visible;"/>
	</clipPath>
	<g style="display:inline;clip-path:url(#SVGID_00000085929204851963719110000017605411767742691005_);">
		<g>
			<defs>
				<rect id="SVGID_00000165207856511456619830000011611830632052141961_" x="-38.8" y="-94.9" width="1351.3" height="900.6"/>
			</defs>
			<clipPath id="SVGID_00000047041192317068985840000015792272860639071384_">
				<use xlink:href="#SVGID_00000165207856511456619830000011611830632052141961_"  style="overflow:visible;"/>
			</clipPath>
			<g transform="matrix(1 0 0 1 0 0)" style="clip-path:url(#SVGID_00000047041192317068985840000015792272860639071384_);">
				
					<image style="overflow:visible;" width="3126" height="2084" xlink:href="A662A8C3.png"  transform="matrix(0.4323 0 0 0.4322 -38.7926 -94.9107)">
				</image>
			</g>
		</g>
	</g>
</g>
<g>
	<g id="XMLID_4925_">
		<path id="XMLID_6675_" class="st3" d="M163.9,654.3c0.1-0.1,0.1-0.1,0.2-0.2c2.1-2.1,4.2-4.3,6.3-6.4c0,0,0.1-0.1,0.1-0.1l-1-1
			c0,0,0,0,0,0l0,0c-2.9,2.9-5,5.1-6.7,6.8l0,0l0,0L163.9,654.3z"/>
		<path id="XMLID_22_" class="st3" d="M97.7,734.4c1.1-1.6,2.4-3.5,4-5.6c3.8-5.2,6.3-8.6,8.1-11.1c0,0,0,0,0,0
			c1.9-2.5,4.4-5.8,8.3-10.9l0,0c4-5,6.6-8.3,8.6-10.7l0,0l0,0v0c2-2.4,4.7-5.6,8.8-10.6c4.2-4.9,7-8,9-10.3
			c2.1-2.3,4.9-5.4,9.2-10.2c3.8-4,6.5-6.8,8.5-9l-1-1c0,0,0,0,0,0c0,0-0.1,0.1-0.1,0.1c-1.9,2-3.8,3.9-5.7,5.9
			c-0.9,1-1.9,2-2.7,2.9c0,0,0,0,0,0v0c0,0,0,0,0,0l0,0l0,0c0,0,0,0,0,0l0,0c0,0,0,0,0,0c-0.6,0.7-1.2,1.3-1.8,2
			c-0.8,0.9-1.7,1.8-2.5,2.7c-1.4,1.5-2.7,3-4.1,4.6l0,0c-0.2,0.3-0.5,0.6-0.8,0.9v0c0,0,0,0,0,0c-0.3,0.3-0.5,0.6-0.8,0.8
			c-0.1,0.1-0.2,0.2-0.3,0.3l0,0c-0.8,0.9-1.5,1.7-2.3,2.6c-1.9,2.2-3.8,4.3-5.7,6.6l0,0l0,0l-0.1,0.2c-0.2,0.2-0.4,0.4-0.5,0.6l0,0
			c-0.1,0.1-0.2,0.2-0.3,0.3l0,0l-0.2,0.2c-0.1,0.1-0.2,0.3-0.3,0.4l0,0c-1.9,2.3-4,4.7-6,7.3c-0.2,0.3-0.5,0.6-0.7,0.9l0,0
			c-0.2,0.2-0.4,0.5-0.6,0.7c0,0,0,0,0,0c-0.4,0.5-0.8,1-1.1,1.4l0,0c-1.6,1.9-3.1,3.8-4.6,5.7c-1,1.2-1.9,2.4-2.8,3.6c0,0,0,0,0,0
			c0,0,0,0,0,0c-2.2,2.8-5,6.4-7.3,9.5l0,0c-0.3,0.4-0.6,0.9-1,1.4c0,0,0,0,0,0l0,0l0,0l0,0c-0.3,0.4-0.6,0.8-0.9,1.2l0,0
			c-0.3,0.4-0.5,0.7-0.8,1.1c-2.3,3.1-4.1,5.5-5.2,7.1c-0.4,0.5-0.8,1.1-1.3,1.7c0,0,0,0,0,0c0,0,0,0,0,0l0,0l0,0c0,0,0,0,0,0l0,0
			c0,0,0,0,0,0c-1.9,2.7-3.2,4.4-4.5,6.2C96.6,734.3,97.1,734.3,97.7,734.4z"/>
		<path id="XMLID_160_" class="st3" d="M1153.9,702.4c2.3,2.9,5.2,6.6,9.8,12.5c4,5.3,6.6,8.9,8.6,11.6c0.6,0,1.2,0,1.7,0
			c0-0.1-0.1-0.1-0.1-0.2c0,0,0,0,0,0c-1-1.4-1.8-2.6-2.6-3.7l0,0l0,0l0,0c-1.6-2.2-3.5-4.7-5.4-7.3c-0.3-0.4-0.7-0.9-1-1.4l0,0
			c0,0,0,0,0,0l-0.1,0.1l0.1-0.1c-1.6-2.1-2.8-3.7-4-5.2c-0.2-0.3-0.5-0.6-0.7-1l0,0c-0.1-0.1-0.2-0.3-0.3-0.4
			c-0.2-0.2-0.3-0.4-0.5-0.7c-1.3-1.7-2.6-3.3-4.3-5.4l0,0c-0.4-0.6-0.8-1.1-1.2-1.6l0,0c-1.6-2-3-3.8-4.4-5.4
			c-0.4-0.5-0.8-0.9-1.1-1.4l0,0c-0.9-1.1-2-2.4-3.3-3.9c0,0,0,0,0,0v0c0,0,0,0,0,0l-0.4,0.3l0.4-0.3l-0.2-0.2l0,0
			c-0.3-0.4-0.6-0.7-0.8-1c-0.5-0.6-0.9-1.1-1.4-1.6c-2-2.4-4.2-4.9-6.6-7.6c0,0,0,0,0,0v0c0,0,0,0,0,0l-1,0.9
			c2.2,2.6,5,5.8,8.9,10.4C1148.6,695.9,1151.6,699.6,1153.9,702.4z"/>
		<path id="XMLID_163_" class="st3" d="M114.3,736c0.8,0.1,1.6,0.2,2.5,0.2c17.2-21,35.7-41,55.6-59.9c0.6,5,1.6,10.2,3.1,15.7
			c-10.8,15-21,30.6-30.6,46.7c0.9,0.1,1.8,0.1,2.7,0.2c9.1-15.2,18.6-29.9,28.7-44.1c4.2,13.7,11.4,29,21.8,45.7
			c0.3,0.5,0.7,1.1,1,1.6c1.6,0.1,3.3,0.2,4.9,0.2c-1-1.5-1.9-3-2.9-4.5c-10.8-17.3-18.1-32.9-22.1-46.9
			c17.5-24.2,36.4-46.9,56.9-67.8c8-5.9,16.1-11.6,24.4-17.1c53.1-3.3,128.7,9.2,221.5,38.6c-8.1,9.5-16,19.3-23.8,29.4
			c-33.4,22.5-65.6,47.3-96.3,74.5c1.6,0,3.2,0.1,4.8,0.1c27.5-24.1,56.1-46.5,85.7-66.9c-16.1,21.3-31.5,44-46.4,68
			c1.5,0,3,0.1,4.4,0.1c16.5-26.5,33.7-51.4,51.6-74.7c12.7-8.5,25.5-16.7,38.5-24.5c20,6.7,40.8,14.1,62.3,22.2
			c54.7,20.8,110.1,45,164.6,71.7c-0.5,0.6-1,1.2-1.5,1.7c1.4-0.1,2.9-0.1,4.3-0.2c0,0,0.1-0.1,0.1-0.1c0.1,0,0.1,0.1,0.2,0.1
			c2.5-0.1,5-0.2,7.6-0.3c-1.8-0.9-3.6-1.8-5.4-2.7c9.4-11.1,18.7-21.8,27.9-32.1c17.1,10.8,34.8,21.3,52.9,31.6
			c2.2-0.1,4.4-0.2,6.6-0.3c-19.5-11-38.7-22.3-57.1-33.9c24.9-27.8,48.7-52.4,71.4-73.6c35.9-33.7,67.4-57.5,93.3-70.3
			c-6.1,10-13.4,22.3-21.8,36.8c-20.8,35.7-47.7,83.1-79.9,140.8c1.6-0.1,3.2-0.2,4.8-0.2c31.5-56.8,57.8-103.5,78.1-138.9
			c8.8-15.3,16.2-28.1,22.4-38.4c0.5,0.3,1,0.6,1.5,0.8c4.5,2.5,9,4.9,13.5,7.5c11.7,32.5,16.7,75.9,15.2,128.6
			c-0.3,11-0.9,22.4-1.8,34c0.9,0,1.8-0.1,2.6-0.1c0.8-11.4,1.3-22.6,1.6-33.4c1.2-52.1-3.9-95.2-15.7-127.9
			c8.6,4.8,17.2,9.7,25.7,14.7c39.7,39.3,73.4,86.7,100.8,140.8c0.7,0,1.4-0.1,2.1-0.1c-26.8-52.6-59.5-98.9-97.9-137.7
			c30.1,17.8,58.8,36.4,85.3,55.2c15.3,13.9,30,28.5,44,43.8c3.5,11.6,6.3,23.8,8.4,36.7c0.9,0,1.7-0.1,2.6-0.1
			c-1.9-11.4-4.4-22.3-7.5-32.7c9.4,10.4,18.4,21.1,27.2,32.1c0.7,0,1.4,0,2.1,0c-9.7-12.3-19.9-24.2-30.4-35.7
			c-1.3-4.2-2.7-8.3-4.2-12.4c0.1,0.1,0.2,0.1,0.3,0.2c22.7,17.9,40.4,33.8,54.4,47.7c1,0,1.9,0,2.9,0c-17-16.9-36.9-34.3-59.1-51.8
			c-5.3-13.1-10.8-23.9-16.5-33.2l0.1,0.1l-2.2-3.5l-0.1-0.1l0,0c-6.9-10.8-14-19.4-21-26.7l0,0c0,0,0,0,0,0c0,0-0.1-0.1-0.1-0.1
			c1.2,1,2.4,2,3.8,3.2c6,5.3,11.3,9.9,17,15.2l0.9-1l-0.2-0.2c-0.2-0.2-0.4-0.4-0.7-0.6c-0.3-0.3-0.6-0.5-0.9-0.8
			c-4.5-4.1-9.4-8.5-15.3-13.6c0,0,0,0,0,0v0c0,0,0,0,0,0l-0.3,0.3l0.3-0.3c-6.5-5.6-10.6-9-14.7-12.3c0,0,0,0,0,0l0,0c0,0,0,0,0,0
			c-2.3-1.8-4.4-3.6-6.9-5.5l-0.2-0.2l0,0l-0.9-0.7l0,0c-1.1-0.8-2.2-1.7-3.4-2.7l0,0l0,0l-0.1-0.1c-1.3-1-2.7-2.1-4.3-3.4l-0.2,0.2
			l0,0l0.2-0.2c0,0,0,0,0,0c0,0,0,0,0,0c-1.3-1-2.5-1.9-3.6-2.7c-2.4-1.8-5-3.7-7.5-5.6c-0.3-0.2-0.6-0.4-0.9-0.7l0,0
			c-0.5-0.3-1-0.7-1.5-1.1c-1.3-0.9-2.4-1.8-3.5-2.6c-2.2-1.6-4.7-3.3-7.3-5.1c-1-0.7-2-1.4-2.9-2l-0.1,0.2l0.1-0.2
			c-1.4-0.9-2.6-1.7-3.6-2.5c-0.7-0.5-1.5-1-2.2-1.5c-1.1-0.8-2.2-1.5-3.2-2.2c-1.1-0.7-2.3-1.5-3.7-2.4c-0.4-0.2-0.7-0.5-1.1-0.7
			l0,0c-1.2-0.8-2.4-1.6-3.5-2.3c-1.4-0.9-2.7-1.8-4.1-2.6l0,0c-1.2-0.7-2.5-1.5-4-2.5c0,0,0,0,0,0c0,0,0,0,0,0l0,0.1l0-0.1
			c-1-0.6-1.8-1.1-2.6-1.6l0,0l0,0l0,0c-1.9-1.1-4.6-2.8-8-4.8c-0.6-0.3-1.1-0.7-1.8-1c-0.6-0.4-1.2-0.7-1.8-1.1l0,0
			c-2-1.2-4.3-2.5-6.5-3.8c-1.2-0.7-2.6-1.4-4.2-2.4c0,0,0,0,0,0c0,0,0,0,0,0c-2.9-1.6-5.6-3.1-8.1-4.5c-0.7-0.4-1.3-0.7-1.9-1
			l0-0.6l-0.4,0.3c-0.4-0.2-0.8-0.4-1.2-0.6l0,0c-0.3-0.1-0.5-0.3-0.8-0.4l-0.9-0.5l0,0c0,0-0.1,0-0.1,0l0,0
			c-5-2.6-9.1-4.7-12.1-6.3l-0.1,0.3l0.1-0.3c-2.4-1.2-4.2-2.1-5.9-3l0,0.1l0,0l0-0.1c-1.8-0.9-3.6-1.7-5.2-2.5
			c-0.7-0.3-1.5-0.7-2.4-1.1c0,0,0,0,0,0c-0.6-0.3-1.1-0.5-1.7-0.8l0,0c0,0,0,0,0,0l0,0c-2-0.9-4.1-1.9-6.2-2.9
			c-1.7-0.8-3.5-1.6-5.9-2.7l-0.6,1.3c0,0,0,0,0,0c0,0,0,0,0,0c6.5,3,10.7,4.9,13.8,6.4l0,0c0,0,0,0,0,0c3.1,1.5,7.1,3.5,13.4,6.6
			c0,0,0,0,0,0l0,0c0,0,0,0,0,0c6,3.1,9.9,5.2,12.8,6.7c0.3,0.1,0.5,0.3,0.8,0.4c-0.7,0.6-1.5,1.5-2.5,2.9c-2.4,3.2-6,8.5-10.7,16
			c-19-22.6-40.3-40.1-63.5-52.7c-2.6-1.4-5.2-2.7-7.8-4c2.2,0.8,4.5,1.7,7.1,2.6c0.1,0,0.2,0.1,0.3,0.1l0,0l0,0l0.5-1.3
			c-0.3-0.1-0.5-0.2-0.7-0.3c-6.7-2.5-12.1-4.4-16.9-6.1c-0.2-0.1-0.3-0.1-0.4-0.2l-0.2,0.5l0,0l0.2-0.5c-0.2-0.1-0.4-0.1-0.6-0.2
			c-0.1,0-0.1,0-0.2-0.1c-0.4-0.1-0.7-0.3-1.1-0.4l-0.3-0.1c-0.5-0.2-1-0.3-1.5-0.5l-0.1,0.3c0,0,0,0,0,0l0.1-0.3l0,0
			c-0.2-0.1-0.3-0.1-0.5-0.2c-2-0.7-3.9-1.3-5.8-2l0,0l0,0l0,0l0,0l0,0l0,0.1c-0.7-0.3-1.4-0.5-2.2-0.8l0,0
			c-0.4-0.1-0.8-0.3-1.2-0.4l-0.4,1.3c10.6,3.6,20.9,8.1,30.9,13.5c23.2,12.6,44.5,30.1,63.6,52.7c-0.5-0.1-1-0.1-1.5-0.1l0,0l0,0
			c-17.8-12.5-36.1-23.8-54.7-33.9c-32.8-17.8-66.8-31.9-101.7-42.3c13.5,0,26.7,1.3,39.7,3.9c6.5,1.3,12.9,2.9,19.2,4.8
			c0,0,0,0,0,0c0,0,0,0,0,0l0.4-1.3c-0.4-0.1-0.8-0.2-1.2-0.4l0,0c0,0,0,0-0.1,0v0l0,0l0,0l0,0l0,0l0,0l0,0l0,0l0,0h0l0,0
			c-0.1,0-0.3-0.1-0.4-0.1c-0.5-0.1-0.9-0.3-1.4-0.4l0,0l0,0l0,0l0,0c-5.5-1.7-11.7-3.5-19.8-5.8l-0.2,0.6l0.2-0.6
			c-3.4-0.9-6.2-1.7-8.6-2.3l0,0c-0.7-0.2-1.4-0.4-2.1-0.5c-1.1-0.3-2.3-0.6-3.6-0.9l0,0c-1.5-0.4-3-0.8-4.6-1.1v0c0,0,0,0,0,0
			c-5.2-1.3-10.1-2.4-18.3-4.2c0,0,0,0,0,0l0,0l-0.1,0.4l0.1-0.4c-7.7-1.6-11.5-2.4-17-3.4l0,0c-0.8-0.1-1.5-0.3-2.2-0.4l0,0
			c-1.3-0.2-2.6-0.4-3.8-0.6l0,0c-2.7-0.5-5.1-0.9-7.4-1.3l0,0c-1.2-0.2-2.5-0.4-3.9-0.6c0,0,0,0,0,0c0,0,0,0,0,0l0,0.3l0-0.3
			c-7.2-1.1-10.5-1.6-16.2-2.4c0,0,0,0,0,0c-0.6-0.1-1.1-0.2-1.6-0.2l0,0c-0.7-0.1-1.5-0.2-2.2-0.3c-2.8-0.4-5.9-0.7-9.3-1.1l0,0
			c-1-0.1-2-0.2-3.2-0.4c0,0,0,0,0,0v0c0,0,0,0,0,0l0,0.2l0-0.2c-1.9-0.2-3.6-0.4-5-0.5c-3-0.3-6.1-0.6-8.8-0.8l0,0
			c-0.6,0-1.2-0.1-1.8-0.1c0,0,0,0,0,0c0,0,0,0,0,0c0,0,0,0,0,0c-0.9-0.1-1.8-0.2-2.6-0.2l0,0l0,0l0,0c-1.8-0.2-3.8-0.3-5.7-0.4
			c-2.1-0.1-4.4-0.3-7.4-0.5l0,0.1l0-0.1c-1.4-0.1-2.7-0.2-3.8-0.2c-4-0.2-7.4-0.4-10.1-0.5h0c-0.4,0-0.9,0-1.3,0
			c-0.7,0-1.3-0.1-2-0.1c-2.8-0.1-5.5-0.2-8.2-0.2l0,0h0l0,0c-1.5,0-3.1-0.1-5.1-0.1l0,0.1l0-0.1c-2.5,0-4.5-0.1-6.2-0.1l0,0
			c-2.3,0-4.6,0-6.7,0l0,0c-0.6,0-1.2,0-1.9,0v0l0,0c-0.6,0-1.2,0-1.8,0l0,0c-2,0-3.9,0.1-5.8,0.1c-2.6,0.1-5,0.1-7.3,0.2l0,0.4
			c0,0,0,0-0.1,0l0-0.4l-0.2,0c-0.8,0-1.5,0-2.2,0.1c-3.6,0.1-6.5,0.2-8.7,0.4h0c-1,0.1-2.1,0.1-3.3,0.2c0,0,0,0,0,0c0,0,0,0,0,0h0
			c0,0,0,0,0,0c-0.4,0-0.8,0-1.1,0.1l0,0l-0.2,0c-4,0.2-7.3,0.4-9.6,0.6c-1.1,0.1-2.3,0.2-3.7,0.3c0,0,0,0,0,0l0,0c0,0,0,0,0,0
			c-1.9,0.1-3.4,0.3-4.8,0.4c-2.3,0.2-4.7,0.4-7.6,0.7h0c-0.3,0-0.6,0.1-0.9,0.1c-0.2,0-0.4,0-0.6,0l-0.2,0l-1.7,0.2l0,0l-0.3,0l0,0
			c-3.5,0.3-6.7,0.7-9.6,1c-0.9,0.1-1.8,0.2-2.9,0.3c0,0,0,0,0,0c0,0,0,0,0,0l0,0l0,0c-1.2,0.1-2.2,0.3-3.1,0.4
			c-3.7,0.5-6.8,0.9-9.1,1.2l0,0c-0.6,0.1-1.2,0.2-1.8,0.3c0,0,0,0,0,0c-0.7,0.1-1.3,0.2-1.8,0.3l0,0c-3.8,0.5-7.4,1.1-11,1.7
			c-0.4,0.1-0.8,0.1-1.2,0.2l0,0l0,0l0,0.3c0,0,0,0,0,0l-0.1-0.3l0,0c0,0,0,0,0,0l-0.2,0l-0.3,0c-0.7,0.1-1.4,0.2-2.1,0.3
			c-3.1,0.5-6.4,1.1-9.7,1.7l0,0c-0.5,0.1-1,0.2-1.6,0.3c0,0,0,0,0,0c-0.6,0.1-1.2,0.2-1.7,0.3l0,0c-3.2,0.6-6.1,1.2-8.8,1.7
			c-1,0.2-2,0.4-3.2,0.7l0,0l0,0c0,0,0,0,0,0c0,0,0,0,0,0c-5.9,1.2-8.1,1.7-13.6,3c0,0,0,0,0,0c-0.3,0.1-0.6,0.1-0.9,0.2l0,0
			c-5,1.2-8.5,2-11.5,2.7l0,0c-0.4,0.1-0.8,0.2-1.3,0.3l0,0c0,0,0,0,0,0v0c0,0,0,0,0,0c-3.3,0.8-5.4,1.4-7.6,1.9l0,0
			c-1,0.3-2.2,0.6-3.5,0.9c-0.7,0.2-1.5,0.4-2.4,0.7h0c-0.8,0.2-1.5,0.4-2.1,0.6l0,0c-2.4,0.7-4.5,1.2-6.4,1.8
			c-1.4,0.4-2.9,0.8-4.8,1.4l0,0l0,0c-0.5,0.2-1.1,0.3-1.5,0.5l0,0l-0.2,0.1l0,0c-3.8,1.1-6.9,2.1-8.9,2.7l0,0
			c-0.8,0.2-1.6,0.5-2.5,0.8l0,0c-1.5,0.5-2.7,0.9-3.9,1.2l0,0c-1.9,0.6-3.8,1.2-5.8,1.9c-1,0.3-2.1,0.7-3.4,1.2c0,0,0,0,0,0l0,0
			c0,0,0,0,0,0l0,0.1l0-0.1l-0.1,0l0,0c-0.3,0.1-0.5,0.2-0.8,0.3l-0.4,0.1l0,0c-4.8,1.6-6.9,2.3-11.8,4.2c0,0,0,0,0,0
			c-1.1,0.4-2,0.7-2.8,1l0,0l0,0l0,0c-1.4,0.5-2.8,1-4,1.5c-1.7,0.6-3.4,1.3-5.9,2.3l0.1,0.2l-0.1-0.2l0,0c0,0,0,0,0,0l-0.1,0l0,0
			l0,0l0,0c-3.3,1.3-7.6,3-11.1,4.4l0,0c-0.4,0.2-0.9,0.4-1.4,0.6l0,0c0,0,0,0,0,0c0,0,0,0,0,0c-0.6,0.2-1.2,0.5-1.7,0.7l0,0
			c-2.4,1-5.2,2.2-7.7,3.3l0,0c-0.9,0.4-1.9,0.8-3.1,1.3l0,0.1l0-0.1l-0.2,0.1l0,0l-0.4,0.2l0,0c-3.7,1.6-7.2,3.2-10.3,4.6l0,0
			c-0.5,0.2-1,0.5-1.6,0.7c0,0,0,0,0,0c-0.6,0.3-1.1,0.5-1.6,0.7l0,0c0,0,0,0,0,0l0,0c-2.9,1.4-6.2,2.9-9.8,4.7
			c-0.2,0.1-0.4,0.2-0.6,0.3l-0.1,0.1l0.6,1.2c0,0,0,0,0,0l0,0c5.6-2.7,9.3-4.4,12.1-5.7c0,0,0,0,0,0c2.8-1.3,6.5-2.9,12.4-5.5l0,0
			l0,0c5.9-2.5,9.7-4.1,12.5-5.3c2.8-1.1,6.7-2.7,12.6-5c0,0,0,0,0,0c6-2.2,9.9-3.7,12.7-4.8c2.9-1,6.8-2.4,12.9-4.5l0,0
			c6.2-2,10.1-3.3,13.1-4.3l0,0c0,0,0,0,0,0c3-0.9,6.9-2.1,13.1-4c0,0,0,0,0,0c0,0,0,0,0,0c6.3-1.8,10.3-2.9,13.3-3.8
			c3.1-0.8,7.1-1.9,13.5-3.5c0,0,0,0,0,0c5.2-1.2,8.9-2.1,11.7-2.8c-72,19.1-138.9,52.7-198.9,100c-13.1,10.3-25.7,21.2-37.9,32.6
			c-20.9,2.1-37.9,7-50.8,14.5c0.4-0.4,0.9-0.8,1.3-1.1c0,0,0,0,0,0c2.4-2,5.5-4.8,10.5-9c0,0,0,0,0,0c0,0,0,0,0,0
			c5.1-4.1,8.3-6.8,10.8-8.8c2.5-1.9,5.8-4.5,10.9-8.5v0c5.1-3.8,8.3-6.3,10.8-8.1l0,0c2.4-1.8,5.7-4.2,10.8-7.8
			c5.2-3.6,8.5-5.9,11-7.6l0,0l0,0c0,0,0,0,0,0c2.5-1.7,5.9-3.9,11.2-7.4c5.3-3.4,8.8-5.5,11.3-7.1c0,0,0,0,0,0
			c2.6-1.6,6.1-3.7,11.5-6.9c5.5-3.2,9-5.2,11.7-6.7c2.7-1.5,6.2-3.4,11.7-6.5c0,0,0,0,0,0c5.6-2.9,9.2-4.8,11.9-6.2l0,0l0,0
			c0,0,0,0,0,0c0,0,0,0,0,0c2.7-1.4,6.3-3.2,12-6l0,0c0,0,0,0,0,0l-0.6-1.2l-0.1,0c-0.2,0.1-0.4,0.2-0.7,0.3
			c-3.2,1.6-6.4,3.1-9.5,4.7l0,0c-0.5,0.3-1.1,0.6-1.7,0.9c-0.6,0.3-1.2,0.6-1.7,0.8l0,0c-3.3,1.7-6.5,3.4-9.6,5
			c-0.2,0.1-0.5,0.2-0.7,0.4l0.2,0.3l-0.2-0.3l0,0c0,0,0,0,0,0l-0.4,0.2l0,0c-1.7,0.9-3.4,1.8-5,2.7c-0.4,0.2-0.9,0.5-1.3,0.7
			c-1.4,0.8-2.7,1.5-4,2.2l0,0c-0.3,0.2-0.7,0.4-1,0.6c0,0,0,0,0,0c0,0,0,0,0,0c-0.3,0.2-0.6,0.3-0.9,0.5l-0.1,0.1
			c-1.3,0.7-2.6,1.5-3.9,2.2c-0.7,0.4-1.4,0.8-2.1,1.2c-1.3,0.7-2.5,1.4-3.7,2.2c-0.3,0.2-0.6,0.3-0.9,0.5c0,0,0,0-0.1,0l0,0
			c0,0,0,0,0,0l0,0c0,0,0,0,0,0c0,0,0,0,0,0c-0.6,0.4-1.2,0.7-1.7,1c-2,1.2-3.5,2.1-5,3c-1.3,0.8-2.8,1.7-4.7,2.9c0,0,0,0,0,0
			c-0.5,0.3-1,0.6-1.4,0.9l0,0c-3.7,2.3-7,4.4-9.9,6.3l0,0c0,0,0,0,0,0l0,0c0,0,0,0,0,0c0,0,0,0,0,0c-0.8,0.5-1.5,1-2.2,1.4l0,0l0,0
			l0,0c-1.7,1.1-4.3,2.8-7.5,4.9l0,0c-0.5,0.3-1,0.7-1.6,1.1c-0.7,0.5-1.4,0.9-2,1.4l0,0c-1.9,1.3-4.5,3.1-7.6,5.2
			c-0.4,0.3-0.9,0.6-1.4,1c0,0,0,0,0,0l0,0c0,0,0,0,0,0v0c-0.3,0.2-0.6,0.4-0.9,0.6l0,0l0,0l0,0l-0.1,0.1c-2.8,2-4.9,3.5-7.1,5.1
			c-0.8,0.6-1.7,1.3-2.8,2.1c0,0,0,0,0,0c-0.6,0.5-1.2,0.9-1.8,1.3l0,0c-1.3,0.9-2.3,1.7-3.3,2.4c-1.6,1.2-3.1,2.4-5.4,4.1l0,0
			l-0.2,0.1c0,0-0.1,0.1-0.1,0.1l0,0l0.3,0.3l-0.3-0.3c-4.8,3.7-6.5,5-10.9,8.6c0,0,0,0,0,0c0,0,0,0,0,0c-1.5,1.2-2.8,2.2-3.9,3.1
			l0,0l0,0l0,0c-0.7,0.6-1.4,1.2-2.3,1.8c-1.3,1.1-2.7,2.3-4.7,3.9l0.1,0.1l-0.1-0.1c-0.9,0.8-1.7,1.5-2.5,2.1l0,0l0,0l0,0
			c-2,1.7-4.2,3.6-6.5,5.6l0,0c-0.5,0.4-1,0.8-1.5,1.3l0,0c0,0,0,0,0,0c-1.3,1.1-2.4,2.1-3.4,2.9l0,0l0,0l0,0
			c-1.3,1.2-2.7,2.4-4.1,3.7c-0.8,0.8-1.8,1.6-2.9,2.6c-0.1,0.1-0.2,0.2-0.4,0.3l0,0c-2.9,2.7-5.8,5.4-8.6,8l0,0
			c-0.4,0.3-0.7,0.7-1.1,1.1c-0.8,0.8-1.6,1.5-2.2,2.1c-1.1,1.1-2.2,2.1-3.2,3l0,0l0,0l0,0c-1.3,1.2-2.6,2.6-4.5,4.4c0,0,0,0,0,0
			c0,0,0,0,0,0l0.1,0.1l-0.1-0.1l0,0l0,0l0,0c-0.3,0.3-0.5,0.5-0.8,0.8l1,1v0l0,0c0.1-0.1,0.2-0.2,0.3-0.3c0.2-0.2,0.4-0.4,0.6-0.6
			l0,0c3.2-3.1,5.6-5.4,7.5-7.3c-0.8,1.2-1.5,2.4-2.2,3.6c-4.9,9.1-7,19.8-6.1,32C151.4,693.2,132.1,714,114.3,736z M265.3,602.9
			c52.9-34.6,110.6-61.8,172.4-80.9c35.1-10.9,70.7-18.9,106.6-24.2c1.2,11.2,6.3,24.3,15.8,39.4c3.7,6,8.1,12.2,13,18.5
			c-19.6,15.5-39,33-58.1,52.6c-10.4,10.7-20.6,21.9-30.7,33.6C393.2,613,318.6,600.3,265.3,602.9z M833.2,516.8
			c23.2,10.1,46.3,21.1,69.1,32.7c-53.3-8.1-110.6-5.9-170.5,6.2c-40.1,8.1-80.4,20.3-120.7,36.6c-12.7-12.5-23.8-24.7-33-36.5
			c30.3-23.8,61-42.5,91.9-56c6.6-2.9,13.2-5.5,19.8-7.9C738.8,495.1,786.7,503.4,833.2,516.8z M693.9,490.5
			c14-4.8,27.8-8.5,41.4-10.9c15,4.8,30.7,10.3,47.1,16.5c13.3,5.1,26.7,10.5,40,16.1C780.6,500.9,737.7,493.6,693.9,490.5z
			 M667.7,498c-30.8,13.3-61.5,31.9-91.6,55.3c-4.6-6-8.7-11.8-12.2-17.5c-9.3-14.9-14.3-27.8-15.5-38.6
			c44.7-6.2,89.9-8.1,135.3-5.6C678.3,493.6,673,495.7,667.7,498z M467.7,667.8c5.9-7.5,11.8-14.8,17.8-21.9
			c3.7,1.2,7.5,2.4,11.2,3.7C487,655.4,477.3,661.5,467.7,667.8z M488,643c9.9-11.5,19.9-22.6,30.2-33.1
			c18.7-19.2,37.7-36.5,56.8-51.8c9.1,11.5,19.9,23.4,32.3,35.6c-31,12.7-61.9,27.8-92.6,45.3c-4.7,2.7-9.3,5.4-14,8.1
			C496.5,645.7,492.2,644.4,488,643z M729.7,741.8c-54.7-26.8-110.2-51.1-165.1-71.9c-20.7-7.9-40.8-15-60.2-21.5
			c4-2.4,8-4.7,12.1-7.1c30.8-17.6,61.7-32.8,92.8-45.6c38.1,37.1,89.9,76.7,148.7,113.8C748.7,719.9,739.3,730.7,729.7,741.8z
			 M832.4,633.3c-22.9,21.2-47,45.8-72,73.6c-58.2-36.8-109.6-76-147.4-112.7c39.9-16.2,79.9-28.4,119.6-36.6
			c61.3-12.5,119.7-14.7,173.8-6c7.2,3.7,14.3,7.4,21.4,11.2C901.1,575.5,869,599.4,832.4,633.3z M947,570.8c-1-2.6-2-5.1-3.1-7.5
			l0,0l-0.1-0.1c1,0.4,2,0.6,2.8,0.7c7,5.9,13.8,12,20.4,18.4C960.5,578.4,953.8,574.6,947,570.8z M972.5,585.3
			c-7.5-7.3-15.2-14.3-23.1-21l0,0l-0.5-0.4c0.2,0,0.3-0.1,0.5-0.2c35.7,20.4,69.1,43.9,100,70.2
			C1025.2,617.3,999.4,601,972.5,585.3z M1107.1,687.1c-10.4-11.2-21.2-22.1-32.3-32.6c9.9,7.2,19.4,14.4,28.5,21.5
			C1104.6,679.6,1105.9,683.3,1107.1,687.1z M1045.4,594.9c0.9,0.7,1.8,1.4,2.6,2c5.4,4.6,10.9,9.6,16.4,15.2
			c7.4,7.9,14.1,16.6,20.1,26c6.6,10.4,12.4,21.8,17.3,34c-12.8-10-26.4-20.1-40.6-30c-33.8-30-70.7-56.6-110.6-79.3l0,0l-0.3-0.2
			c0-0.1,0-0.1,0-0.2l0.6,0.2l-1.1-1.7l0,0l-0.1-0.2l0,0c-0.3-0.4-0.6-0.9-1.1-1.3c32.8,2.9,56.5,11.4,74.4,21.1
			C1031.7,585.2,1039,590.1,1045.4,594.9z M950.3,539.1c0.8-1.9,1.3-3.4,1.7-4.5c0.1-0.3,0.2-0.6,0.2-0.8l1.5,0.8l0,0
			c2,1.1,4.5,2.4,7.4,4c5.9,3.4,9.6,5.5,12.5,7.2c2.8,1.7,6.5,3.9,12.4,7.5c6,3.8,9.8,6.2,12.7,8.1c2.9,1.9,6.7,4.5,12.7,8.5
			c6.4,4.5,10.4,7.3,13.7,9.6c0,0,0,0,0,0c0.6,0.4,1.2,0.9,1.9,1.4c-1-0.6-1.9-1.1-2.9-1.7c-22.3-12.1-48.1-19.4-77.2-21.4l0,0l0,0
			c-1.1-0.9-2.4-1.7-3.8-2.5l0,0l0,0C946.3,548.2,948.7,542.8,950.3,539.1z M948.8,536.5c0.3-0.4,0.6-0.8,0.9-1.2
			c-1.1,3.5-3.7,9.9-8,19.3c-1-0.5-2.1-1-3.2-1.4c-0.1,0-0.2-0.1-0.3-0.1C942.9,545.3,946.5,539.7,948.8,536.5z M935,558.3
			L935,558.3L935,558.3c0.4,0.3,0.8,0.5,1.2,0.8l-0.1,0l0,0c-0.7,0.3-1.5,0.6-2.2,0.9C934.3,559.5,934.6,558.9,935,558.3z
			 M937.6,560.1c0.5,0.3,1.1,0.7,1.7,1c0.9,0.5,1.8,0.9,2.7,1.3c1,2.4,2,4.8,3,7.3c-3.7-2.1-7.5-4.1-11.2-6.2
			c-0.5-0.3-1-0.5-1.5-0.8c0.1-0.2,0.2-0.3,0.3-0.5C934.3,561.5,936,560.8,937.6,560.1z M929.6,561.3c-5.3-2.8-10.5-5.6-15.9-8.4
			c6.3,1.1,12.5,2.4,18.6,3.8C931.5,558.2,930.6,559.7,929.6,561.3z M909.5,550.7c-19.4-10-39.1-19.5-58.9-28.5
			c27.6,8.8,54.6,19.6,81,32.2c0.1,0.3,0.2,0.6,0.4,0.9C924.6,553.5,917.1,552,909.5,550.7z M878.6,519.7c18.2,9.9,36,20.8,53.3,33
			c-0.1,0.1-0.1,0.2-0.2,0.2l-0.4-0.2l0,0c-29.9-14.3-60.7-26.2-92.2-35.7c-18.3-8.1-36.7-15.7-55-22.6c-15.4-5.8-30.2-11-44.4-15.6
			c10.8-1.7,21.5-2.7,32-2.9C808.6,486.5,844.3,501.1,878.6,519.7z M662.9,454.6c3.5,0.2,8,0.4,15.2,0.7c0,0,0,0,0,0c0,0,0,0,0,0
			c7.4,0.5,12.1,0.9,15.7,1.2c3.6,0.3,8.2,0.8,15.6,1.5c0,0,0,0,0,0c7.7,0.9,12.5,1.5,16.3,2c0,0,0,0,0,0c3.8,0.5,8.5,1.2,16.1,2.4
			c0,0,0,0,0,0c8.2,1.4,13.2,2.3,17.2,3c4.1,0.8,9,1.8,17,3.4c8.6,1.9,13.8,3.1,18.3,4.2l0,0c0,0,0,0,0,0c4.3,1.1,8.8,2.2,15.7,4
			c-12.7-2.1-25.6-3.1-38.7-2.9c-16.3-4.7-32.8-8.6-49.5-11.7c-21.1-3.9-42.2-6.6-63.3-7.9C660.2,454.5,661.6,454.6,662.9,454.6z
			 M721,463.8c15.1,2.8,30.1,6.3,45,10.4c-10,0.4-20.2,1.4-30.4,3.2c-37.9-12-71.1-19.4-98.7-22.4C664.9,455.7,693,458.6,721,463.8z
			 M595.1,455.6c4.8-0.3,9.7-0.5,14.6-0.6c31,0.1,72.2,7.7,121.4,23.2c-14.2,2.7-28.6,6.6-43.2,11.8c-46.8-3-93.5-1.2-139.6,5.2
			c-0.5-7,0.8-13.1,3.6-18.3c3.2-5.9,8.5-10.7,15.7-14.2C574.8,459.1,584,456.8,595.1,455.6z M292.5,572.1l-0.4-0.5L292.5,572.1
			c61.5-48.5,130.1-82.6,204.2-101.3c22.5-5.7,45.2-9.9,67.9-12.5l0,0c3.9-0.4,6.8-0.7,9.1-1l0,0c1.3-0.1,2.5-0.2,3.8-0.3
			c-4.9,1.2-9.3,2.8-13.2,4.7c-7.5,3.7-13,8.7-16.4,14.9c-3,5.5-4.2,11.9-3.7,19.2c-36.1,5.2-71.8,13.2-106.9,24.1
			C374,539.5,315,567.4,261,603.1c-1.7,0.1-3.3,0.2-4.9,0.4C267.8,592.5,280,582.1,292.5,572.1z M178.3,688.1
			c-1.4-5.2-2.3-10.1-2.7-14.8c12.8-12,26.2-23.5,40.1-34.6c3.2-2.6,6.5-5.1,9.7-7.6C208.6,649.1,192.9,668.1,178.3,688.1z
			 M181.3,640.5c2.4-4.4,5.5-8.5,9.3-12.1c12.8-11.2,32.6-18.4,58.6-21.3c-5,4.8-10,9.7-14.9,14.7c-6.6,4.9-13.2,9.9-19.6,15
			c-13.6,10.8-26.7,22.1-39.3,33.9C174.6,659.1,176.6,649.1,181.3,640.5z"/>
		<path id="XMLID_4929_" class="st3" d="M872.5,497.2c8.1,3.2,13.1,5.2,17.4,6.9c0,0,0,0,0,0c4.9,2,9.8,4.2,17.9,7.7l0.6-1.3
			c0,0,0,0,0,0v0c0,0,0,0,0,0c-0.1-0.1-0.2-0.1-0.4-0.2l0,0l0,0l0,0c-7.9-3.5-12.3-5.4-17.5-7.5c0,0,0,0,0,0
			c-1.5-0.6-3.1-1.3-4.7-1.9c-0.4-0.2-0.9-0.4-1.3-0.5l0,0c-0.2-0.1-0.3-0.1-0.5-0.2l0,0c-3-1.2-6.4-2.5-10.8-4.2l0,0l-0.2-0.1l0,0
			l0,0l0,0L872.5,497.2z"/>
		<path id="XMLID_4926_" class="st3" d="M1087.6,631C1087.7,631,1087.7,631,1087.6,631c6.2,5.8,11.6,11.1,17.7,17.1c0,0,0,0,0,0l0,0
			c0,0,0,0,0,0l0,0c2.5,2.6,5.4,5.6,8.3,8.6c0,0,0,0.1,0.1,0.1c2.8,2.9,5.6,5.9,8,8.4c0,0,0,0,0,0c0,0,0,0,0,0
			c3,3.3,5.4,5.9,7.3,8.1l1-0.9c0,0,0,0,0,0l0,0c0,0,0,0,0,0c-1.8-2-3.5-3.9-5.1-5.6c-0.7-0.8-1.4-1.6-2.3-2.4l-0.3,0.3l0.3-0.3
			c-2.4-2.6-5.3-5.5-8.1-8.5c0,0-0.1-0.1-0.1-0.1c-2.9-3-5.8-6-8.3-8.5c0,0,0,0,0,0l0,0l0,0l-0.3,0.3l0.3-0.3
			c-6.2-6.2-11.4-11.2-16.2-15.7l0,0l0,0l0,0c-0.5-0.5-1.1-1-1.6-1.5L1087.6,631L1087.6,631L1087.6,631z"/>
	</g>
	<g id="XMLID_4803_">
		<path id="XMLID_4924_" class="st4" d="M1187.6,709.7L1187.6,709.7l-0.1,0l-0.2,0c-0.2-0.2-1.7-2.2-2.1-2.3
			c-0.1,0.2-0.1,0.4,0.1,0.7c0.3,0.6,4.6,7.8,6.3,8.3l0.1,0c0-0.1,0-0.1-0.1-0.4c0,0,0,0,0.8,0.3
			C1192.5,715.6,1188,710.2,1187.6,709.7z"/>
		<path id="XMLID_24_" class="st4" d="M695.6,657.9c0.3,0.1,0.6,0.2,0.9,0.3c0.1,0.3,0.2,0.7,0.3,0.9c-1.6,2.2-1.6,2.2,14.1,15.1
			c0.7,0.5,1.3,0.9,2,1.4c-0.2,2.2-0.2,2.2,0.2,3.4c0.5,0.2,1.3,0.2,1.8,0.2c0.4-1.2,0.9-2.8,1.3-4c1.6,2.6,1.6,2.6,4.1,2.7
			c0.1,0.2,0.1,0.2,3,3.5c0.1,0.2,0.3,0.6,0.4,0.8c0.6,0.6,0.6,0.7,0.7,0.7l0.2,0.1l0.1,0.1l0.1,0.1l0,0l0,0l0,0l0,0l0.6,0.3
			c0.8,0.9,0.9,2.2,2.1,2.9c0,0.4,0,0.4,3.4,2.4c0.3-0.1,0.7-0.3,1-0.4c0.5-0.6,0.5-0.6,0.5-0.6l0.1-0.1l0.1-0.1l0.1-0.1l0.1-0.1
			l0.1-0.1l0.1-0.1l0.1-0.1c0.4-0.5,0.8-1.4,1-2l-0.1-1.1c-0.1-0.3-0.2-0.7-0.3-0.9c-0.2-0.1-0.6-0.3-0.8-0.4c0.1-0.3,0.2-0.7,0.2-1
			c0.3-0.1,0.6-0.3,0.9-0.4c0.2,0.2,0.5,0.4,0.7,0.6c0.6-0.2,1.5-0.5,2.1-0.7c0.1,0.3,0.3,0.6,0.5,0.9c-0.3,0.5-0.9,1.1-1.4,1.4
			c0.3,0.5,0.8,1,1.1,1.5c-0.4,0.4-0.8,1.1-0.9,1.7c2.2,1.3,2.3,1.4,2.8,2.5c-0.9,1.4-3,1.9-3.1,3.9c1.1,0.9,1.1,0.9,3,0.7
			c0.4,0.5,0.8,1.1,1,1.6c-0.6,0.7-0.9,1.7-1.6,2.3c0.3,0.5,0.8,1.2,1.2,1.7c-1.1,1.3-2,2.3,1.8,6.5c-1,1-2.6,2.7-6.3,0.6
			c-0.1-0.3-0.1-0.7-0.2-1c-4-0.9-4.7,2.2-3.5,3.3c1.4,1.3,3.9,1.6,7.6,1.1l1.1,0.1l0.2,0.9c0.6,0,1.3,0.2,1.9,0.5
			c0.1,0.3,0.2,0.6,0.3,0.9c-0.4,0.4-0.9,1-1.2,1.5c0.5,1,0.9,1.7-0.7,3.7c0.2,0.5,0.4,1.3,0.6,1.8c2.2-0.9,2.2-0.9,2.8-0.8
			c0,2.4-0.8,2.6-1.8,2.9c-0.1,2,0,2.4,1.8,2.9c-0.1,3.5-2.7,6.7-1,10.3c-2.1,5.4-8.1,5.3-11.9,8.4c-0.7,0.2-0.7,0.2-0.7,0.2l0,0
			l0,0l0,0l0,0l0,0l0,0l0,0c-4.9,0.4-12.8,1.8-12.8,1.8c-0.7,0.5-1,1.1-1.1,1.6c19.7-0.7,39.5-1.5,59.2-2.3c0-0.3-0.1-0.6-0.1-0.8
			c1.6-1.1,1.6-1.1,2.1-2c-0.4-1.5-1.9-2.6-1.6-4.4c-1.2-1.3-1.2-1.3-1.6-2.3c1-0.7,2.4-0.9,3.3-1.7c0.5,0,0.5,0,2.6,1
			c0.3-0.2,0.8-0.4,1.1-0.5l0.4-1.1c2.8,1,4.7,3.6,7.6,4.4c0-4.6-5.9-6-5.8-10.7c0.2-0.1,0.5-0.3,0.8-0.5c1.9,0.8,4,0.7,5.7,2.1
			c5.1-1.2,3.3-6.6,2.6-8.4c-2.7,0-5.3,1.2-8,0.1c1.8-0.9,1.8-0.9,2-2.2c-0.2-0.2-0.5-0.4-0.8-0.6c1.6-0.6,2.7-0.8,5.4-0.6
			c2.2-2.5-2.2-4.3-1.4-6.9c-1.3-0.6-3.4-1.5-5.3-1.2c0-0.3,0-0.6,0-0.9c0.3,0,0.7,0,1,0c0-0.3,0.1-0.6,0.2-0.9
			c-0.5-0.3-0.5-0.3-5-0.8c0.6-0.6,1.7-1.1,2.6-1.3c1.4-1.1,1.9-1.5,1.7-3.4c-1.5-1-3.2-0.1-4.8-0.2c0.1-0.3,0.1-0.8,0.2-1.1
			c9.5-5.5-0.6-9.8-0.8-9.8l-3.9,0.4c0.1-0.2,0.3-0.5,0.5-0.8c-1.3-0.1-2.6,0.4-3.9,0.1c0.4-0.4,0.7-0.8,1.1-1.2
			c0.1-0.3,0.3-0.6,0.4-0.9c-0.2-0.2-0.5-0.4-0.7-0.6c0.1-0.1,0.1-0.1,2.2-1.9c-0.6-0.9-1-1.4-4.2-1.9c0-0.3,0.1-0.7,0.1-1
			c1.5-0.7,3.4-0.2,4.7-1.4l0.2-0.2l0.1-0.1l0.1-0.1l0.1-0.1l0,0l0,0l0,0l0,0c0.4-0.9,1.2-2.7-2.2-3.2c0-0.7-0.3-1.6-0.7-2.2
			l0.8-1.1l0.7-1.1l0.3-1.4l-0.8-1c-0.4-0.4-1.1-0.7-1.7-0.9c-0.8-9.9-10.6-9.1-12.5-7.5c-0.2,0.2-0.3,0.6-0.4,0.8
			c-2.1,0.4-2.1,0.4-5.3,4c-0.3,0-0.7,0-1,0c-0.5-1.6-0.5-1.6,1.7-3.1l0.9-2.1l-0.5-0.9c-0.3,0.1-0.7,0.2-0.9,0.3
			c-0.1-0.3-0.2-0.7-0.2-0.9c-0.3-0.1-0.6-0.2-0.9-0.2c-0.1-0.2-0.3-0.6-0.4-0.8c0.1-0.3,0.3-0.6,0.4-0.9c-3.3-0.4-5.8,3.7-9.4,1.5
			c3.4-2.6,8.3-2.2,11.3-5.5c1.1-1.2,4.5-9.6,5.7-13.2c-0.1-0.2-0.1-0.2-4.9-2.7c0-0.3,0-0.7,0-1c-1.4-0.2-2.9-0.2-4.4-0.4
			c-0.1-0.2-0.3-0.6-0.5-0.8c-16.4-1.8-17.1-1.9-23.8,5.2c0.7,1.4,2.5,1.9,3.1,3.4c-0.5,0.5-1.1,1.1-1.6,1.6c-0.2-4.6-8.6-1-8.7-0.8
			c-0.8,1.3-0.8,1.3,1.2,6.5c-0.4,0.5-0.9,1.3-1.3,1.9c-1,0-1,0-2.8-0.7c-0.1-1-0.5-6.3,1.2-8.5c-0.6-1.6-0.6-1.6,6.7-5.1
			c0.1-0.7,0-1.6-0.1-2.3c0.7-0.9,0.7-0.9,6.5-2.6c0-0.3-0.1-0.8-0.1-1.1c0.3-0.4,1-0.9,1.6-0.9c4.3-0.4,8.7-0.1,13-0.5
			c0.7-3.3-1.5-4.8-3.1-5.9c-13.4-7.7-48.8,0.9-46.3,14.4c0.2,1.1,2.8,3.4,4.1,4.3c-1.2,0-1.8,0-4-1.3c-1.4-1.1-2.1-1.6-2.9-2.2
			c-4.8,3.9-4.8,3.9-5,12c1.4,0.9,4,1.6,6.3,1.6C695.4,655.7,695.3,656.8,695.6,657.9z"/>
		<path id="XMLID_25_" class="st4" d="M692.8,743.3c-0.7-0.1-6.8-0.9-12.2,4.7c5.9-0.2,11.7-0.4,17.6-0.6
			C696.6,743.9,695.6,743.7,692.8,743.3z"/>
		<path id="XMLID_4909_" class="st4" d="M642.9,530.1c-0.3-0.3-0.5-0.4-2.3-0.8c-0.7-0.3-1.6-0.6-2.3-0.9c0.3-0.1,0.7-0.3,1-0.4
			c0-0.5,0-0.5,0.7-1.4c-0.8-1.2-2.3-1.2-3.4-1.9c0-0.1,0-0.1,4.8-3.9c-0.2-0.3-0.4-0.5-2.9-0.3c-0.3-1.3,0.4-2.6-0.4-3.9l0.1-0.3
			c-1.5-0.8-3.2-0.5-4.7-1.2c0.2-0.4,0.4-0.7,0.6-1.1c-2.5-0.7-3-1.2-3.5-1.8L627,514c-6.3,2.9-7.3,2.8-9.6,2.5
			c-5.3,0.3-5.3,0.3-10.6,0.4c-1.8,0.4-1.8,0.4-6.1,0.5l-3.9,0.3l-4.4,0.8l-9.3,0.3c0,0.3-0.1,0.6-0.2,0.8c1.7,2,1.7,2,1.7,2.1
			c-2,1.6-2,1.6-1.4,2.9l-4.5,1.8c-1.3,2.4-1.3,2.4-3.6,3.7c-1.5,0.9-1.8,1-1,2c3.4,1.7,7.3,1.9,10.9,3.1c-0.6,2.5,4.9,1.3,10.7,0
			c1.3-0.3,2.3-0.4,3-0.4l11.6,0.8c0.4,0,0.8,0.2,1.1,0.2c8.3,1.7,16.2,4.9,24.6,5.9c0.3,0,1.1,0.1,2.2-0.1c1.9-0.4,1-2.5,1.6-3.8
			c0.7-1.5,0.9-1.6,4.2-3.3C644.3,534.7,642.7,530.9,642.9,530.1z"/>
		<path id="XMLID_4908_" class="st4" d="M668.7,567.6c-1-1.3-6.1-1.4-6.6-1.2l-1.3,4.5c-1,0.7-2.1,1.1-3,1.7
			c-0.2-0.1-0.4-0.1-0.6-0.2c0.1-0.9,0.1-0.9,1.9-4.2c-0.1-0.2-0.2-0.4-0.2-0.5c-0.8,0.1-1.6,0.3-2.4,0.4c0.4-2,0.4-2,0.3-2.6
			c0.1-0.1,0.2-0.3,0.3-0.5c-3.4-0.9-4.6-0.3-14.3,4.1c-1.7,0.8-1.8,3-3.5,3.8c-5.1,2.4-5.1,2.4-5.3,2.6c-1.4,1.1-5-0.2-5-0.2
			c0.1-0.3,0.1-0.7,0-1c0,0,2.5-2.4,7.8-5.1c3.3-1.7,3.3-1.7,5.2-6.7l1.5-1.1c0.1-0.5,0.1-0.5-1.7-2.9c-0.6,0.1-0.7,0.1-1.9,0.5
			c-1.8,4.4-1.8,4.4-3.4,4.2c-0.1-0.3-0.2-0.7-0.3-1c-2.4-0.4-2.4-0.4-2.5-0.5c0.1-0.2,0.1-0.6,0.2-0.8c-5.3-0.4-5.3-0.4-5.8-1.3
			c7-0.7,7-0.7,7.4-3.4c-0.1-0.1-0.2-0.3-0.4-0.4c0.1-0.1,0.2-0.3,0.3-0.4l-0.3-0.4c0.1-0.1,0.2-0.3,0.3-0.4c-0.2-0.5,0-1-0.1-1.6
			c-0.3-0.1-0.6-0.3-0.8-0.6c0-0.2,0.1-0.4,0.1-0.5c-0.2-0.2-0.4-0.6-0.5-0.9c-6.7-0.2-6.7-0.2-7,0l0.2,0.5c-2,0.1-2.1,0-2.7-0.6
			c0-0.2,0.1-0.4,0.1-0.6c-1.1,0-1.1,0-1.8-0.4c0.1-0.1,0.2-0.3,0.2-0.5c3.4-0.9,6.9-0.5,10.2-1.2c3.1-1.3,4.5-1.9,4.5-3.4
			c-5.7-1.4-5.7-1.4-6.4-1.8c0-0.2,0-0.4,0-0.5c-1.8-0.5-3.6-1.2-5.4-1.7l-0.2-0.5c-1.6-0.4-3.3-0.5-4.9-0.8l0,0l0,0l0,0l0,0l0,0
			l0,0l0,0c0,0,0,0-0.4-0.2c-0.1,0-0.1,0-1.4-0.9c-0.1-0.1-11.6-2.9-11.6,1.7c-3.2-0.5-3.3-0.5-4.1-0.9l0,0l0,0l0,0l0,0l0,0l0,0l0,0
			c0,0,0,0-0.1-0.1c-2.8-0.8-5.4,0.5-8.1,0.4c-0.8,0.7-0.8,0.7-1.7,0.9l3.7,3.4c0,0.2,0,0.4,0,0.5c-1.6,0.3-2.1,0.2-3.3-0.2
			c-1.1,1.2-1,1.2-0.9,2c0,0,2.7,1.6,4,2c0,0,4.5,2.4,4.7,3.5c0.3,0.1,0.6,0.3,0.9,0.5c-0.4,0.1-0.4,0.1-14.6-5.7
			c-6.5-2.6-7.3,5.1-7.2,5.5l8.1,7.7c0.9,0.8,1,0.9,2,1.3l4.2,6.8c1,2.4-2.1,2.4-4.3,1.1c-1-4.6-6.2-4.8-8.5-8.1
			c0.1-0.2,0.1-0.4,0.2-0.5c-0.2-0.2-0.2-0.2-6.8-4.8l0,0l0,0l0,0l0,0l0,0l0,0l0,0c0,0,0,0-0.3-0.3c-1.8-0.4-1.8-0.4-2.2-0.6
			c-0.4,0.1-0.9,0.1-1.2,0.2c-0.2,0-12.6,7.1-6.6,12c-0.3,2.7-0.3,2.7-0.1,2.8c1.8,0,1.8,0,2.1,0.1c0,0.1-0.1,0.3-0.1,0.5
			c0.6,0.8,1.4,1.2,2,1.9c-0.5,3.7-4.7,2.4-6.7,4.1c0,1,0,1.7-1,2.7c0.5,1,0.5,1,0.4,1.5c1.4,2.3,4,2.9,5.8,4.7
			c0.7-0.3,0.9-0.3,2.2,1.1c1.8,1.9,4,3.2,5,3.8c0,0,5.2,2.5,16.1,6.4c2.5-0.1,4.9-0.8,7.5-0.4c0.1,0.4,0.4,0.8,0.6,1.1
			c-0.8,1-2,1-3,1.5c0,0,0.6,1.2,3,2.8c-0.2,1.9-1.6,3.4-1.9,5.2c3.3,1.8,5,5.5,8.4,7.1c3.1,1.5,6.8,2,9,1.2c-0.8-2.1,2.6-2.9,1.5-5
			c-1.6-0.5-3.1-0.1-4.7-0.2c0.4-0.4,0.4-0.4,2.6-1.1c0-0.4,0-0.8-0.1-1.2c0.1-0.1,0.2-0.3,0.3-0.5c0.3,0.1,0.3,0.1,1.4,1.7
			c1.6-0.1,2.7-1.6,4.3-1.7c1.1-0.1,1.6,1.3,2.6,1.4c0.1,0.2,0.2,0.4,0.3,0.5c-0.8,0.7-0.9,0.8-0.4,1.5c0.3,0,0.7,0.1,1,0.3
			c0,0,0.9,1.9,1.4,2.9c0.5-0.1,1-0.2,3.2-1.4c2.9-1.6,2.9-1.6,1.8-5c0.5-0.8,1.4-1.2,1.8-2.1c-1.8-0.7-2-1.3-2-1.7
			c0.1-0.1,1.5-1.4,2.1-2.5c-0.2-0.2-0.4-0.6-0.6-0.8c0.5-0.7,0.9-1.4,1.4-2.1c-2.6-0.1-2.6-0.1-3.4-0.4c0-0.1,0-0.1,3.8-5.1
			c-0.4-0.4-0.9-0.8-1.2-1.3c1.3-3.1,4.5-1.5,6.7-2.5c1.5-0.7,1.5-0.7,6.4-5.3c3.6-3.4,8.1-5.8,11.7-9.1c1.7,1.1,6.7,3.1,15.8-2.5
			c-0.1-0.7,0.4-1.4,0.1-2.1C670.9,569.2,669.5,568.7,668.7,567.6z"/>
		<path id="XMLID_4907_" class="st4" d="M776.1,564.4c-0.1-0.1-0.1-0.1-0.6,0c-0.5-0.5,0.7-1,1.2-1.1c1.5-0.6,1.3-1.1,1.3-1.1
			c-0.1-0.1-0.4-0.3-0.6-0.4c-0.4-0.2-0.9-0.5-0.9-0.7l0.1-0.1c0.3-0.4-0.1-0.9,0-1.3l0.3-1.3l-0.1-0.1c0,0-1.9-1-2.5-0.9
			c-1.5,0.4-8.1,3.2-8.7,4.1c0.7,0,0.7,0,0.8,0c0.2,0.2,0.2,0.5,0.3,0.7c0.1,0.1,0.3,0.1,0.4,0.3l0.1,0.1l-0.9,1.5
			c-0.8-0.2-1.5-0.9-2.2-1.2c-0.3,0.5-0.1,0.7,0.1,0.8c0.2,0.2,0,0.4-0.4,0.6c-1.5,0.7-2.1,1.5-2.1,1.5c-0.2,0.5,0.2,0.9,0.5,1.1
			c0.3,0,2.9,0.2,2.9,0.3l-0.1,0.1l0,0.1l-0.2,0c-0.1,0.1-0.3,0.7,0.2,0.9c0.8,0.4,1.7-0.1,2.4,0.4c1.4,0.8,1.4,0.8,2,0.9
			c1.5,0.1,1.5,0.1,1.9,0c1.9-0.7,1.9-1,1.9-1.4c0-0.3,0-0.6,2.6-0.4l0.1,0c0-0.2,0.3-0.4,1-0.7c0.1-0.1,0.5-0.2,0.7-0.4
			C777.7,566.5,777.8,566.3,776.1,564.4z"/>
		<path id="XMLID_4906_" class="st4" d="M771.4,574.4c-0.1-0.2-0.1-0.5-0.2-0.7c-0.1-0.2-0.6-0.1-0.6-0.5c0-0.2,0.2-0.3,0.2-0.5
			l-0.2-0.3c-1.5-1.1-3.5-1-5-2c0.1-0.4,0.1-0.6,0.1-0.6c-0.2-0.2-0.4-0.2-0.6-0.3c-0.2-0.1-0.2-0.4-0.3-0.5l-0.2-0.1
			c0,0-3.5-0.2-4.1,0.2c-0.3,0.2-0.5,1.6-0.5,1.6c0.1,0.4,0.6,0.2,0.8,0.5c-0.1,0.5-0.7,0.5-0.8,1c0,0.2,0,0.2,1.5,0.7
			c0.4,0.1,0.7,0.4,1.1,0.6l0.3,0.1c0.9,0.3,0.9,0.3,1.1,0.5l0,0.1l0.7,1.5l0,0.1c0.3,0.2,0.7,0,0.9,0.3c0.6,0.7,0.6,0.7,1.2,0.9
			c1,0.4,3-0.2,3.4-0.4c0.2-0.1,1.9-1.2,1.9-1.4C772,574.6,771.5,574.6,771.4,574.4z"/>
		<path id="XMLID_4905_" class="st4" d="M776.2,580.9c-0.3,0-0.6,0.1-1,0.3c-1,0.6-1,0.6-1.9,1.8c-0.5,0.7-1.1,0.7-1.5,0.7
			c-0.3,0-0.5-0.1-0.7,0.2l-0.4,0.9l0.4,0.5l0.1,0c0.1,0,1-0.3,1.4-0.4c0.5-0.2,0.5-0.2,0.9-0.2c-0.5,0.5-0.6,0.7-0.6,0.9l0.1,0.1
			c0.2,0,0.4-0.2,0.6-0.1c0,0.2,0,0.2,0,0.3c0.1,0.3,0.3,0.5,0.4,0.9c0,0.2-0.1,0.4-0.1,0.7l0.1,0.1c0.4,0.3,0.9,0.2,1.4,0.2
			l0.2,0.1c0.2,0,0.4,0,1-0.3c0.6-0.3,2.5-1.4,2.8-1.7c0.3-0.2,0.3-0.3,0.3-0.7c0-0.2-0.1-0.3-0.2-0.5c0,0,0-0.7,1.4-1.2
			c0.4-0.1,0.4-0.1,0.5-0.3l-0.2-0.3C781,582.8,777.9,580.7,776.2,580.9z"/>
		
			<rect id="XMLID_4904_" x="744.6" y="575.7" transform="matrix(0.4138 -0.9104 0.9104 0.4138 -87.594 1015.2823)" class="st4" width="0" height="0"/>
		<path id="XMLID_4903_" class="st4" d="M787.9,627.5c0.8-1,0.8-1,0.9-1.5c-0.9-0.9-1.8-1.9-2.8-2.6c0.1-2.1,0.1-2.1-0.7-3.1
			l-0.1-0.1l-0.2-0.1l-0.2-0.1l-0.2-0.1l-0.2-0.1l-0.1-0.1l-0.1-0.1l0,0c0.6-0.4,0.6-0.4,0.6-0.9c-0.9-0.5-1.2-0.6-1.6-0.8
			c0-0.2,0-0.4-0.1-0.6c0,0-3.4-0.6-5.6-0.4c0.8-1.2,0.8-1.2,0.8-1.5c-0.6-0.2-0.8-0.4-1.1-1.4c-0.3-0.1-0.5-0.5-0.9-0.5
			c-1.6-0.3-3.3,0.1-4.9,0c-1.3-0.1-2.4-1.1-3.7-1.2c-2.6-3.1-3.9-1.3-4.2-0.6c-0.6,0-1.3-0.6-1.7-0.9l0.2-0.3
			c-0.2-0.9-0.1-1.8-0.1-2.7c-1.2-1.5-3.2-1.5-4.6-2.6c0.1-0.5,0.3-0.9,0.4-1.4c0.1-0.4-0.5-1.4-2-0.8c-0.9-0.4-1.5,0.6-2.3,0.7
			c-0.2-1.5,2.4-2.8,2.7-2.9c0.3-0.1,1-0.5,0.9-1.5c-0.1-0.7-0.8-0.8-1.2-1.3c0.3-0.5,0.9-0.5,1.4-0.8c0.1-1,0.1-1-2.3-1.8
			c0.6-0.2,0.6-0.2,1.3-0.2c0-0.8-0.1-1-0.4-1.4c1.9-0.2,1.9-0.2,2.6,0.5c-0.1,0.2-0.2,0.4-0.2,0.6c0.5,0.4,1.2,0.6,1.8,1l0.2,0.1
			l0.1,0.1l0.1,0l0,0l0,0l0,0l0.1,0l0.1,0.1c0.5,0.3,0.5,0.3,0.9,0.5c0.5-0.3,1.2-0.6,1.7-0.9c-0.2-1-0.2-1-1.4-2.1
			c0.1-0.4,0.1-0.4,0-2.3c0.7-0.6,0.7-0.6,1.3-3.7c-0.3-0.2-0.5-0.5-0.7-0.7c0,0-2.6-1.9-3.4-1.8c-1,0.1-1.8,0.2-2.4-1.5
			c-0.5-0.1-1-0.2-1.5-0.2c0.6-0.3,2.2-1.9,2.4-2.4c0,0-0.2-2-0.6-2.2l-0.2-0.1c-1.1-0.4-1.2-0.7-1.2-0.8c-0.1-0.3,0.3-0.7,0-1
			c-0.5-0.5-0.8-1-1.1-2.1c-0.1-0.3-1.9-1.9-2.1-1.9c-2.7-0.9-3.8-0.6-5.7-0.1c-0.9,0.2-2.1,1-2.1,1c-0.4,0.4,0,0.7,0,1.1l0.1,0.1
			c0,0.1,0,0.1-0.1,0.3l0,0l0,0c-0.4,1.2-0.4,1.2,0.5,1.5c0,0,1.4,0.5-1,0.7c-0.8,0.1-0.8,0.1-0.9,0.3c0,0.1,0.1,0.2,0.3,0.4
			l0.2,0.2c0,0.3-0.4,0.4-0.4,0.7c0,0,0.3,0.5,1.1,0.4c0.2,0,0.2,0,0.3,0c-0.1,0.3-0.2,0.7-0.3,1c0.1,0.2,0.4,0.1,0.5,0.4l-0.1,0.2
			c-0.3,0.3-0.3,0.7-0.2,1.2c0.1,0.3,0.8,0.6,0.5,1c0,0,0.7,0.8,0.9,0.9c0,0,2.8,0.8,3.2,0.8c1.2,0,1.6-0.4,2.2-1
			c0.2-0.2,0.4-0.4,0.6-0.4c0.6,0,1.1,0,1.5,0c-1.8,0.5-3.1,2-5.1,4.5c0.1,0.2,0.4,0.4,0.6,0.5c-0.1,0.4-0.1,0.4-0.5,0.8
			c-0.7,0.6,0,1.8-0.9,2.3c-1.4,0.9-1.4,0.9-2.2,1.6c-0.2,0.2-0.6,0.5-0.9,0.7c-1.1,0.7-2.3,0-3.5,0.3c-2,0.5-2.2,0.6-2.6,1
			l-5.3,5.3c0.1,0.2,0.3,0.4,0.4,0.7c-0.2,0.2-0.4,0.5-0.6,0.7c-0.7,1.1,0.3,3,2.1,2.4c0.4-0.2,0.8-0.5,1.2-0.7l1.1,0.2
			c-1.5,1-1.5,1-2.1,3l0.7,1c0.2,0.2,0.4,0.3,0.7,0.5c3.2,1.9,3.2,1.9,3.4,1.9c1.9,0.1,3.8-0.5,5.7,0c-0.1,0.4-0.2,0.5-2.4,1.8
			c-0.4,0.4-1,1-1.5,1.4c1.1,0.6,1.9,1.5,2.9,2.1c1.1,0.7,2.5-0.1,3.7,0.6c-0.4,0.6-0.4,0.6-0.5,1c0.3,0.6,0.6,0.8,1.4,0.8l0.9,1.1
			c0.9,0.2,1.8,0.2,2.7,0.3c0.1,0.3,0.1,0.7,0.2,1c-0.1,0.2-0.1,0.5-0.1,0.7c0.7,0,0.8,0,1.4-0.3c0.2,0.2,0.5,0.4,0.7,0.6
			c-0.1,0.5,0,0.6,0.4,1l1,0.1c0.3,0.2,0.8,0.4,1.1,0.6c0,0.4-0.1,0.8-0.1,1.2c0.7,0.6,5.6,2.3,5.6,2.3c1.2,0.1,1.5-1.3,2.4-1.6l0,0
			l0,0l0,0l0,0l0,0l0,0l0,0l0,0c0.8,0.9,0.8,1.1-0.3,1.7c-1.6,0.9,3.5,6.3,3.6,6.4c2.1,0.4,2.1,0.4,7.1,2.3c1.2-0.6,2.1-1.7,3.3-2.4
			c1.9-1.2,2.7,2.1,4.6,1.3l0-0.2c-0.5-0.6-0.5-0.6-0.6-1c0.2-0.2,0.4-0.5,0.5-0.8c0.7-1.7,2.6-1.1,3.7-1.9
			C789.8,629.2,789.6,629,787.9,627.5z"/>
		<path id="XMLID_4902_" class="st4" d="M770.1,552.2c-0.1-0.1-0.1-0.1-1.1-0.1c-1.1-0.1-1.1-0.1-1.3-0.2c0.7-1,2.1-1.1,2.9-2l0-0.3
			c0.3-0.2,0.3-0.2,0.4-0.3c0-0.2-0.8-1-1-1.1c0.1-0.1,0.2-0.3,0.2-0.4c-0.2-0.1-3-0.4-4-0.3c-0.8,0-0.8,0-1,0
			c1.7-0.8,3.8-0.7,5.4-1.9l0.2-0.2c0.1-0.4-0.2-0.8-0.1-1.2c0.1-0.4,0.6-0.6,0.7-1l0-0.1c-0.4-0.2-0.8-0.1-1.2-0.3
			c-1.1-0.5-1.1-0.5-1.1-0.9c0-0.1,0-0.3-2.5-1.9c0,0-0.6-0.3-1-0.4c-0.9-0.1-3.9-0.1-4.8,1c0.2,0.4,0.8,0.5,1,1l-0.2,0.7
			c0,0-1.1,0.2-1.6,0c-0.2-0.1-1.3,0.4-1.4,0.5c0.2,0.6,0.7,0.8,1.3,0.9c2-0.4,2-0.4,2.6-0.1c0,0.4,0.5,0.3,0.7,0.6
			c-0.5,0.2-1,0-1.5,0.1c-0.7,0.1-1.2,0.6-1.8,0.8c0.7,0.3,0.8,0.4,1,0.6l0,0.1c-0.8,0.4-1.6,0.7-2.2,0.9l0.3-0.3l0-0.1
			c-0.9-0.5-0.9-0.5-0.9-0.6c-0.2,0-0.2,0-0.3,0.2c0.1,0.2,0.1,0.2,0.2,0.5c-0.2,0.1-1.7,0.7-1.8-0.1c-0.1-0.1-0.2-0.1-0.3-0.2
			c0.1-0.7,1.1-0.6,1.3-1.3c-3.7-1.3-6-1.9-7.5,0.9c0.2,0.5-0.4,0.7-0.6,1c0.4,0.3,0.5,0.4,1.4,0.6c0.5,0.1,0.4,0.7,0.8,0.9
			c0.4,0.2,0.9,0,1.3,0.1l3,0.9c-0.5,0.3-1.1,0.3-1.5,0.8c0.6,0.1,0.5,0.2,0.5,0.7c0.3,0.3,0.7,0.1,1,0.4c0.9,0.9-0.9,1.4-1.6,1.6
			c1,0.7,1,0.7,1.3,0.5c1.2,1,0.9,1.1-0.2,1.6c0,0.3,0,0.3-1.3,1c-0.2,0.1-0.2,0.1-1,1.2c-0.5,0.7-0.6,1.1,0.1,1.6l0,0l0,0l0,0l0,0
			l0,0l0,0l0,0l0.1,0c0.7,0.6,0.7,0.6,1,0.7c-0.1,0.6-0.3,2,3.7,1.6c0.2,0,0.4-0.1,0.6-0.1c0-0.4,0-0.4,2.9-1.4
			c0.4-0.1,0.4-0.1,1.5-1.3c0-0.2,0-0.5,0-0.7c1.9-1.4,1.9-1.4,2.8-1.5c2.4-0.3,2.4-0.3,2.5-0.4c0.3-0.2,1-0.7-0.4-1
			c0.7-0.7,1-0.9,1.8-1.1c0.2,0,1.2-0.3,1.4-0.6c-0.1-0.2-0.4-0.2-0.5-0.4C770.1,552.6,770.4,552.3,770.1,552.2z"/>
		<path id="XMLID_4901_" class="st4" d="M749.8,553.7c-0.6-0.4-1.8-0.6-1.8-0.6l-1.5,0.1l-0.3,0.1c0,0-1.3,0.8-1.1,1.1l0,0
			c0.1,0.1,0.3,0.2,0.4,0.3c0.1,0.1,0.1,0.3,0.2,0.4c0.2,0.2,0.2,0.2,0.2,0.3c0,0.4,0,0.4,0,0.4c0.3,0.2,0.5,0.6,0.9,0.8
			c0.5,0.3,0.9,0.5,1.2,0.6l0.3,0l1.2-0.6c0.3-0.3,0.8-0.7,1-1.2c0.1-0.2,0.3-0.7,0-1.1C750.4,554.2,750.1,554,749.8,553.7z"/>
		<path id="XMLID_4900_" class="st4" d="M645.2,631.7c-3.6-1.6-3.6-1.6-3.6-1.6c0.1-0.4,0.1-0.4,0-0.5c-0.6-0.4-1.9,0.3-2-0.7
			c-0.1-1.3,1.2-1.5,1.7-2.2l-1-3.2c0,0-0.5-0.7-0.8-1c-1.2-0.9-6.5,0.8-7.7,1.9c-0.6,0.6-1.9,0.8-1.9,0.9c-0.5,0.1-0.9-0.1-1.4-0.1
			c-0.6,0-1.1,0.4-1.7,0.4c-0.2,0-0.5,0-0.7-0.1c0,0-1.1-0.6-1.2-1.3c-0.1-0.9-1.6-0.9-1.6-0.9c-1.4,0.2-2.2,1.5-3.5,1.8
			c0.4,0.8,1.7,2.7,3.3,3.2c0.6,0.2,0.6,0.2,0.7,0.4c-0.5,0.7-1.9,0.1-2,1.2c-0.1,1.3,1.3,1.3,1.8,2.2c1.7,3.4,1.7,3.4,2.5,3.7
			c0.3,0.2,0.3,0.2,0.3,0.3c-0.1,0.9-0.2,1.9-0.1,2.1c0.1,0.3,0.5,0.4,0.7,0.7c0.2,0.3,0,0.7,0.2,1l0.1,0.2c0.3,0.3,0.5,0.4,0.7,0.5
			c0,0,1.5,0.4,2.1,0.2c1.3-0.5,1.6-0.4,1.7-0.4c0,0,3.2,0.7,3.6,1.2c0.9,0,0.9,0,1.1,0.3c0,0,1.8-1.5,1.9-1.7
			c0.2-0.8-0.6-1-0.9-1.5c0.2-0.2,0.8-0.6,0.8-1l-0.5-2.6c0.9-0.6,1.7-1.5,2.6-2.2l0.2-0.1c0.8-0.3,1.2,0.5,1.8,0.7
			c-0.3,0.7-0.9,1.2-1.1,2c-0.1,0.5,0,0.7,0.6,0.8c0.8,0.1,4.7-0.7,4.6-1.7C646.6,634.2,646.2,632.1,645.2,631.7z"/>
		<path id="XMLID_4899_" class="st4" d="M695.8,586.6c-0.1,0-2.3-0.3-2.9,0.3c0.1,0.4,0.2,0.7,0.3,1.1c-2.2,2.2-3.2,0.3-1.9-2.1
			c0.2-0.3,0.6-1,0-1.7c-1.5,0-1.5,0-1.6,0.2c-0.3,0.3-1.8,0.1-1.8,0.1c-0.3-0.1-0.3-0.1-0.4-1.6c-1.9-0.6-1.9-0.6-2.3-0.4
			c-2.4,0.8-2.4,0.8-2.9,0.6l0.1-0.2c-0.5-0.7-0.7-0.7-4.4,0l-0.1,0.2c0.2,0.1,0.4,0.2,0.6,0.4c-0.5,1.2-2,1.3-2.6,2.4
			c1.9,3,1.9,3,1.9,3c0,0-0.8,2.9-2.4,0.9c-1.4-0.1-1.5,1.4-2.4,1.9c-0.8,0.4-1-0.8-1.7-0.8c-1.3-0.1-2.6-0.3-2.7-0.3
			c-0.4-0.1-0.4-0.3-0.4-0.6c0-0.1,0-0.3,0.4-0.7c1-1,3.1-4.2,3.2-4.8c-0.2,0.1-0.2,0.1-0.6-0.2c0,0-4.9-2-7.7,0.8
			c0,0-1.3,1.5-1.4,1.8l-0.1,0.2c-0.4,0.7-0.4,1.4-0.6,2.1c-0.2,0.7-1.2,0.6-1.3,1.4c-0.2,1.6,2.1,1.1,2.5,2.4
			c-1.3,0.8-1.3,0.8-1.3,1.1c0.2,0.1,0.2,0.1,0.6,0.2c1.1,2.1-1.7,2.9-1.6,4.7c0.6,0.4,0.6,0.4,0.6,0.5c-0.1,0.7-0.7,1.2-0.9,2
			c-0.4,2.2-1,2.7-2.6,4.1c-1.2,1.1-1,1.8-0.9,2.3c0.3,0.9,1.3,0.4,1.8,0.9c-0.1,0.3-0.1,0.3-0.4,0.6c4.5-0.2,4.5-0.2,5.2-0.7
			c1.1-0.8,1.9-3.9,3.3-2.5l0,0.2c-2.6,2.6-2.6,2.6-2.5,3.1c1.6-0.6,2.6,0.3,2.6,0.3c0.3,0.3,1.7,0.9,1.8,1c0.4,0.1,0.4,0.1,2.4-0.3
			c1-0.2,1.8,0.9,2.8,0.6c0,0,4.1-1.2,5.6-3.1c1.4-1.7,3.6-1.3,5.4-2c2.1-0.9,1.9-1.9,1.8-2.1c-0.1-0.3-0.1-0.7,0.5-0.9
			c1.5-0.5,3.2-0.2,4.5-1.1c0.1-0.1,0.1-0.1,0.7-1c-0.7-2-4.2-1.5-5,0c0.2,0.3,0.5,0.4,0.6,0.7c-1.2,1.2-1.3,1.2-3.4,0.7l-0.1-0.2
			c3-2.9,3-2.9,3.2-4.2c-0.7,0.1-4.7-0.6-4.7-0.7c0-0.1,0.1-0.3,0.2-0.4c0.3,0.1,0.5,0.1,1.2,0c0.9-0.1,1.7-0.4,2.6-0.5
			c0.6,0,1.1-0.2,1.7-0.2c0.4,0,0.4,0,2.9,0.4c1.5,0.3,2.7-0.9,4.2-0.7l0.2,0.4c4.3-0.2,4.3-2.7,4.3-3.5c-0.8-0.6-0.8-0.6-1-1.3
			c1.9,0.1,2.6-0.6,3.2-1.3c-0.5-0.3-0.5-0.3-1-0.8C699.5,587.8,696.5,589.2,695.8,586.6z"/>
		<path id="XMLID_4898_" class="st4" d="M739.7,571.5c-0.3-0.7-0.3-0.7,0.2-1.3l0-0.2c0,0-1.6-0.9-3.1-0.7c-0.9,0.1-1.6-0.6-1.7-0.6
			c0.1-0.3-0.2-0.5,0-0.8c0,0,0.3-0.2,0.8-0.4c2.3-0.9,2.3-0.9,2.3-1c-0.3-0.3-0.9-0.2-1.1-0.7l0.1-0.2c-0.9-0.1-2.3,1.3-2.7,0.1
			c0.2-0.3,0.4-0.4,0.7-0.7c-0.6-1.4-2.1-0.4-3.1-0.9l0-0.2c1.5-0.5,1.5-0.5,1.5-0.6c0,0-3.5-1.8-4.9-0.3c0.8,1.6,0.8,1.6-1.4,2.5
			l0,0.2c0.1,0,1.4,0.8,0,2.2c-1,1.1-1,1.1-1.9,1.5c-0.7,0.3-1,0.6-0.8,1.2c-0.5,0.3-0.6,0.3-0.9,0.5c-0.2-0.2-0.3-0.4-0.1-1.9
			c0.1-0.6,0.5-1,0.6-1.6l0.3-0.3c-0.3-1.1,2.1-2.9,2.1-2.9c0.3-0.2,0.3-0.3,0.4-0.5c-0.3-0.2-0.8,0.2-1.1-0.2
			c-0.3-0.4,0-0.9-0.1-1.3c0,0-5-1.5-6.8,3c0.3,0.6,0.3,0.6,0.3,0.8c-1.8,0.9-1.8,0.9-2,1.8c-0.2,0.6-0.3,1-0.6,0.9l-1.2-1.1
			c0-0.3,0-0.3,0.9-1l0-0.2l0,0l0,0l0,0l0,0l0,0l0,0l0,0l0,0c-0.6-0.7-0.1-0.9,2-1.5c-1.2-0.3-1.2-0.5-1.2-0.8l-0.2-0.2
			c0.1-0.2,0.1-0.2,0.5-0.4c1.6-0.9,3.6-2.5,3.6-2.6c0.5-0.5-0.6-0.8-0.2-1.4c0.3-0.6,1.2-0.2,1.5-0.8l-0.1-0.2l0,0l0,0l0,0l0,0l0,0
			l0,0l0,0l-0.1-0.1l-0.1-0.2c0.3-0.5,0.8-0.9,1.1-1.5c0.3-0.5-1.8-2.5-3-2.3c-0.2,0-0.4,0.1-0.6,0.2c-1.8,0.7-1.8,0.7-3.7,2.3
			c-1.7,1.5-4,0.3-5.8,1.5c0.3,0.2,0.6,0.2,0.9,0.4c0.2,0.5,1.3,1,2,1.3c-0.9,0.9-2.2,0.8-3.2,1.4c0.9,0,0.9,0,1.2,0.1
			c-0.6,0.2-0.9,0.3-1.2,1c0.3,0.2,0.5,0.5,0.8,0.7c0.3,0.1,0.4,0.1,0.7,0.4c-0.1,0.3-0.2,0.7-0.4,0.9c-1.1,0.5-2.4,0.5-3.6,1.1
			l-0.1,0.3c0.1,0.1,0.9,1.4,1.3,1.7c1.8-0.4,2-0.4,3.4,0.4c0,0.4-0.4,0.7-0.4,1c0,0,1.4,1.5,1.7,1.7c0.8,0.4,1.7,0,2.5,0.2
			c0.8,0.2,1.4,0.9,2.2,1.1c0.2,0,0.4,0.1,0.5,0.2c-0.2,0.1-0.2,0.1-3.4,0c-2.5,0.2-2.5,0.2-3.7,1.4c-0.2,0.3-0.4,0.4-2.3,1
			c-0.7,0.4-1.7,0.9-2.4,1.2c0.9,1.9,1.7,2.4,2,2.5c2.9,1,2.9,1,3.6,2c-0.6,2.8,7,1.9,7.8,1.3l-0.2,0c0.1-0.4,0.5-0.4,0.6-0.7
			c-0.6,0-0.9-0.1-0.7-0.6c0,0,3-1.3,3.4-1.2c-0.3,0.4-0.3,0.4,0.3,0.8c-0.4,0.5-1.2,0.6-1.5,1.3c0.2,0.2,0.7,0.7,2.1-0.2
			c1.6-1,1.6-1,2.9-1.1l0.2-0.1c0.1-0.3,0.2-0.7,1.2-1.4c0.6-0.8,0.6-0.8,8-3.8c0-0.3,0-0.3,3.7-1.8l0-0.2
			C739.3,572.2,739.3,572.2,739.7,571.5z"/>
		<path id="XMLID_4897_" class="st4" d="M730.3,582.4c-0.5-0.2-1.1-0.2-1.7-0.3c-0.5-0.2-1-0.5-1.5-0.7c-0.1,0-0.3-0.1-0.5-0.1
			l-0.4,0.1l-1.1,0.4c0,0-0.6,0.8-0.5,1l0.1,0.2c0.1,0.2,0,0.5,0.2,0.7c0,0,0,0,0.5,0.1l0,0c1.6,0.2,1.6,0.2,1.9,0.3
			c0.5,0.1,0.7,0.2,1,0.3l0.3,0.1l1.6-0.4C730.7,582.9,730.7,582.7,730.3,582.4z"/>
		<polygon id="XMLID_4896_" class="st4" points="725.4,583.7 725.5,583.7 725.5,583.7 725.5,583.7 		"/>
		<path id="XMLID_4895_" class="st4" d="M735.8,588.3c-0.2,0-0.2,0-0.6-0.9l-0.3-0.3l0.1-0.4l0-0.1c-0.2-0.3-0.7-0.2-0.9-0.4
			c-0.3-0.3-0.4-0.7-0.7-1c-0.2-0.1-0.2-0.1-1.7,0c-0.5,0-1,0.2-1.6,0.2c-2.1,0.1-2.1,0.1-2.7-0.2c0,0-0.2-0.1-0.6-0.1l-4,0.2
			l-2.5,0.9c-0.6,0.2-0.8,1.9-0.8,1.9l0.2-0.1l0.1,0.2c0.1,0.8-0.1,1.7,0,2.5c0.2,1.3,1.3,2.4,1,3.8c0,0.1-0.1,0.5,0.1,0.9l1.2,1.1
			c0.4,0.2,1,0.1,1.4,0.4c0.2,0.1,0.1,0.5,0.3,0.6c0.4,0.4,0.4,0.4,4.7-1.1c0.4-0.1,1.1-0.7,1.1-0.8l-0.2,0.1
			c1.5-1.4,3.4-2.3,4.9-3.8c0.3-0.3,0.2-0.7,0.3-1c0.4-0.8,1.2-1.3,1.5-2.1C736,589,736.2,588.3,735.8,588.3z"/>
		<path id="XMLID_4894_" class="st4" d="M717.1,591.5l-0.2,0c-0.1,0-0.1-0.2-0.1-0.3c0,0,0-0.1-0.2,0c-0.4,0.1-0.7,0.3-1.1,0.3
			c-0.2,0-0.4,0-0.6,0.1l0,0c-0.1,0.1-0.2,0.2,0.2,0.7c0.2,0.2,0,0.3-0.4,0.6l-0.2,0.1l0,0.1c0.1,0.1,0.2,0.2,0.3,0.3
			c0.2,0.1,0.3,0.2,0.4,0.5l0.1,0.2c0.1,0.1,0.2,0.1,0.3,0l0.1,0c0.5-0.3,1-0.6,1.5-0.9l0.4-0.2l0.3-0.2c0.4-0.4,0.2-0.9,0.2-1.1
			C717.9,591.4,717.3,591.5,717.1,591.5z"/>
		<path id="XMLID_4893_" class="st4" d="M740.4,584.2L740.4,584.2L740.4,584.2L740.4,584.2L740.4,584.2L740.4,584.2L740.4,584.2
			L740.4,584.2L740.4,584.2c-0.5-0.3-2.1,0.5-2.2,0.6l-0.5,0.7l0,0.2c0,0,0,0.1,0.1,0.2c0.2,0.2,0.4,0.3,0.6,0.4
			c0.1,0.1,0.2,0.2,0.3,0.3l0.4,0.2c0.1,0,0.2,0,0.3-0.2c0.1-0.1,0.2-0.3,0.3-0.4c0.1-0.1,0.2-0.2,0.3-0.3c0.3-0.4,0.8-1.1,0.8-1.1
			l0,0C740.8,584.6,740.6,584.4,740.4,584.2z"/>
		<path id="XMLID_4892_" class="st4" d="M698.5,542.6c0.3,0.1,0.6,0.2,0.8,0.3c0.3,1.4-1.3,1.6-1.8,2.6c-2,0.3-3.8-1.5-5.9-0.6
			c0.3,0.9,0.3,0.9,0,1.6c0.2,0.4,0.7,1.2,0,1.7c-0.1,0-4.2,0.6-3.6-1.1c-2.6-1.2-2.6-1.2-2.6-1.3c0.4-0.3,0.9-0.2,1.3-0.4
			c-0.2-0.3-0.6-0.5-0.5-0.9c0,0-1.9-0.6-2.5-1.2c1.5-0.6,3.2-0.6,4.8-1.3c0.5-0.2,0.3-0.8,0.7-1.1c-0.1-0.2-0.6-1.4,1.7-2.8
			c0-0.4-0.2-0.6-0.3-1c0.5-0.7,1.5-0.7,1.7-1.6c-0.5-0.4-0.7-1.2-1.5-1.2c-0.5-0.6-1.3-0.8-1.9-1.2c1.8-0.8,3.9-0.5,5.3-2.3
			c0,0-3.1-1.8-3.6-2c-2.5-0.9-5.7-0.6-5.7-0.6c-0.4,0.2-0.4,0.2,1,3c-0.2-0.1-0.2-0.1-2.1-2.3l0,0l0,0l0,0l0,0l0,0l0,0l0,0l0,0
			c-0.2-0.3-0.2-0.3-0.4-1.2c-0.6-0.4-6.2-1.3-6.5,1.1c1.4,1.3,2.4,1.7,3,1.9c1,0.2,1.2,0.6,0.8,1c-1.1,1.4-5.3-3.5-5.3-3.6
			c-0.9-0.6-4.8-1.1-6.1-0.4c0.2,1.3,0.3,2.3,3.6,3.3c0.6,0.2,1.1,0.4,1.1,1.1c-3.1-1-3.1-1-3.6-1.1c-1.8-0.3-1.8-0.3-2.2-0.6
			c0.3-1.1-0.6-1.8-0.7-2.7c-5,0.1-5,0.1-6.4,0.8l0,0l0,0l0,0l0,0l0.1,0.1l0.1,0.1l0.1,0.1l0.1,0.2l0,0.4c-0.2,0.1-0.4,0.3-0.6,0.4
			c0.4,1.6,2.4,0.3,3.1,1.6c-2.4,1.3-2.4,1.3-2.5,1.9c0,0,1.1,0.4,2.6,0.8c-0.2,0.2-0.3,0.3-1.2,0.7l0,0.3c1.4,1.4,1.4,1.6,1.4,2
			c1.8,0.6,3.4-0.4,5.1-0.4c-0.2,0.7-0.2,0.7-0.2,0.8c1.3-0.1,2.6-0.5,3.8-0.7l0.2,0.2c-0.3,1-0.3,1.2-4.6,1.4
			c-2.9,0.2-1.7,2.2-1.7,2.2c1.2,0,2.2-1.4,3.6-0.6c0,1.8,2.3,1.1,3.4,1.8c-0.4,0.5-0.5,1.2-0.9,1.7c0.1,0.1,0.1,0.1,3,0.6l-0.1,0.3
			c3.6,1,3.6,1,3.8,1.1c-1.9,0.7-7.1-0.4-8-1.7c-2.3-3.5-13.5-4.7-13.6-4.6c0.2,0.7-0.7,1.3-0.2,2.1c-0.2,0.8-1.1,1.1-1,2
			c0.1,0.8,1.2,1.6,1.4,1.7c3.4,2.3,3.4,2.3,11.6,4.3c0.8,0.1,1.8,0.2,2.6,0.3l-0.1,0.2c0.2,0.1,0.3,0.2,0.4,0.3l-0.2,0.2
			c0.9,0.5,1.7,1.3,2.8,1.6c1.3,0.4,2.6-0.1,3.8,0.3c-0.2,0.1-0.4,0.1-0.6,0.2c2.4,0,2.3,1.7,2.3,3c0.9,0,1.9-0.1,2.8,0
			c0.6,0.1,0.6,0.1-1.4,1.6c2.9,2.3,2.9,2.3,3.7,2.5c1.2,0.3,2.4,0.5,3.7,0.7c1.5,0.3,2.8-0.7,4.2-0.6c2.2,0.2,4.2-1,6.3-1.3
			l-0.3,0.1c1.4,0,1.9,0,3.8-0.6c0.9-0.3,2.6-0.8,3.2-1.9c-0.4-1.1-0.4-1.1-0.3-1.5c-0.8-0.4-1.3-1.1-2.2-1.3
			c-1.2-0.2-2.4,0.4-3.6,0.3c0.4-0.4,0.5-1,0.9-1.4c-1.2-0.5-2.7-0.4-3.7-1.5c1.7,0.2,2.7,0.2,3.7,0c0-0.2,0.2-0.5,0.4-0.7
			c-0.5-1.5-0.5-1.5-0.3-1.7c0.8-0.6,1.7-0.1,2.5-0.4c0.8-0.3,1.3-0.8,2-1.2c2.4-1.3,5.5-0.7,7.6-2.8c-0.2-0.1-1.1-1.3-1.1-1.3
			C711.6,541.5,699.8,541.1,698.5,542.6z"/>
		<path id="XMLID_4891_" class="st4" d="M678.5,523.5c-0.3,0-0.5-0.3-0.8-0.3c-1.1-0.1-2.1-0.1-3.2-0.2c-0.2,0-0.4-0.1-1.4-0.2
			c-5.4-1-7.9-0.9-7.9-0.9c-0.2,0-1.6,1.4-1.6,1.5l0,0.1c0.3,0.1,0.3,0.1,0.4,0.3c0.4,0.8,3.7,1.3,5.1,1.5c1.7,0.2,7.9-0.1,7.9-0.1
			c1-0.1,1.7-0.8,2-1.8C678.6,523.5,678.6,523.5,678.5,523.5z"/>
		<path id="XMLID_4890_" class="st4" d="M707.4,521c-1.6-0.1-3.1,0.1-4.7-0.1c-0.2-0.4,0.3-0.7,0-1.1c-0.6-0.9-1.6-1.4-2.2-2.3
			l-0.7-0.5c-4.4-1.6-9.1-1.2-13.6-2l0.2,0c-9.7-1.5-10.2-2-10.6-2.4c-1.1-1.1-1.5-1.5-7.3-1.2l-0.1,0.2l0,0l0,0l0,0l0,0l0,0l0,0
			l0,0l0.1,0.1c-0.1,0.2-0.3,0.5-2.8,0.5c0,0-2.5,0-2.8,1.1c1.3,0.4,2.7,0.1,3.9,1c-0.2,0.3-0.5,0.4-0.6,0.8
			c0.4,0.3,0.4,0.3,0.7,0.5l0,0.3c-0.2,0.1-0.4,0.2-0.6,0.3l-0.1,0.2c0.4,0.1,0.7,0.1,2.2,0c0.9-0.1,1.8-0.4,2.8-0.4l-0.2,0.2
			c0.1,0.2,0.1,0.2,0.6,0.5c-1.6,1.2-4,0.1-5.4,1.9c0.3,0.7,3.5,1.9,6.1,1.5l-0.1-0.2c0.4-0.2,0.8-0.3,2.5-0.7l0.2,0.2
			c-0.8,1.2-0.8,1.2-0.8,1.3c0.5-0.2,4.6-0.1,5,0l0,0l0,0l0,0l0,0l0,0l0,0l0,0c0,0,0,0,0.2,0.1c0.8,0.2,1.9,0.1,3.4-0.4l5.6,0
			c0.6,0,0.6,0,0.8,0.1c-2,2.8-5.9,0.4-8,2.9c-0.8,0.9,1.9,1.6,1.9,1.6c1.8,0.3,3.4-0.4,5.2-0.4c0.7,1,1.2,1.8,4.8,1.6
			c0.9,0,1.6-0.6,2.5-0.9c0.9-0.3,1.7,0.3,2.6,0c0.2-0.1,0.2-0.1,2.6-1.3c0.2,0.1,3.9,1.4,5.9,1.2c1.3-0.1,2.8-1.6,3-1.8
			c-0.2-0.4-0.2-0.4-0.2-0.7C707.6,521.5,707.6,521.5,707.4,521z"/>
		<polygon id="XMLID_4889_" class="st4" points="668.4,516.5 668,516.5 669,516.4 669.1,516.4 668.9,516.4 		"/>
		<path id="XMLID_4888_" class="st4" d="M701.5,530.4l-0.3-0.2l0,0l0,0l0,0l0,0l0,0l0,0l0,0l0,0c-0.3-0.3-0.7-0.2-0.9-0.5
			c-0.2-0.2-0.2-0.5-0.4-0.8l0,0c-0.1-0.1-0.3-0.1-0.6-0.2c0,0-2.2-0.2-3,0.9l0,0.2c0.1,0.2,0.4,0.3,0.4,0.5c0.1,0.2-0.2,0.4,0,0.6
			l0.4,0.5c0.3,0.3,0.8,0.2,1.1,0.4c0.2,0.1-0.1,0.3,0.1,0.4c0.1,0.1,0.2,0.1,2.2-0.1l0,0c0.4-0.2,1-0.4,1.5-0.5
			C701.8,530.7,701.6,530.5,701.5,530.4z"/>
		<path id="XMLID_4887_" class="st4" d="M722.1,524.6c-1.4-0.4-1.4-0.4-2.2-0.4c-0.6,0-0.7,0-0.8,0l-0.2-0.1c-0.2,0-1.2,0.2-1.3,0.2
			c-2.1,0.6-1.9,0.8-1.7,1c1,1,0.8,1.4,0.6,1.7c-0.1,0.1,0.3,0.2,0.5,0.3c0.5,0.1,1,0.1,1.5,0.2c0.3,0.1,0.6,0.2,0.9,0.3
			c0.1,0,0.3,0,0.9-0.1c0.7-0.1,0.7-0.2,0.8-0.2c0.6-0.5,0.6-0.5,0.6-0.7l0.1-0.3c0.3-0.4,0.8-0.6,1.2-1c0.2-0.2,0.1-0.3,0-0.4
			C722.6,524.8,722.6,524.7,722.1,524.6z"/>
		<path id="XMLID_4886_" class="st4" d="M731.7,533.1c-0.5-0.5-0.5-0.5-2.1-1.3c-0.6-0.3-1.5,0-2.1-0.6c-0.4-0.4,0.6-0.6,0.6-1.1
			l-2.3-0.6c-0.7-0.2-1.2-0.7-1.9-1l-1.9-0.2c0,0-0.9,0-7.1,1c-1.3,0.2-1.6,0.5-1.6,0.6c-0.2,0.4-0.2,0.4,0.9,1.5
			c0.5,0.5-0.8,0.7-0.9,1.2l1,0.7l1.1,0.5c0.4,0.2,1,0.5,1.4,0.7l0,0.2c0.5,0.7,1.3,0.3,1.9,0.6c0.6,0.3,1.2,0.8,1.8,1.1
			c0,0,1.2,0.6,2.7,0.4c0.8-0.1,1.6-0.5,2.4-0.5l0.9-0.6c0.2-0.4,0.1-0.8,0.2-1.2c1.2-0.1,2,0,2.4,0.3c0.2,0.2,0.9,0,0.8,0.4
			c-0.1,0.5-0.1,0.6,0.4,0.7c0.7,0.2,1.9,0.1,2.5,0.1l0.4-0.1l0.1-0.1C732.2,535.2,732.4,533.9,731.7,533.1z"/>
		<path id="XMLID_4885_" class="st4" d="M744.5,530.7c-0.9-0.7-5.1-1.3-5.1-1.4c-2.7-0.4-3.4-1.3-3.4-1.3c0-0.1,0-0.2-0.1-0.2
			c-0.3-0.1-0.6-0.4-0.9-0.4c0,0-1.2-0.2-1.5-0.3l0-0.1c-0.5-0.3-3.8-0.9-4.9-0.2c0,0.1,0,0.1,0.9,0.4c0.4,0.2,0.2,0.6,0.3,0.9
			c0.7,0.2,1.4,0.2,2,0.4c0,0,0.7,0.3,0.8,0.5l-0.1,0.2l0.3,0.3c-0.4,0.7-0.4,0.7-0.5,0.7c-0.3,0.2-0.5,0.3-0.3,0.5
			c0.8,0.6,1.7,0.1,2.6,0.3l-0.1,0.1c0,0,0,0,0.8,0.4l0,0.1c-0.4,0.1-0.4,0.2-0.5,0.3c0,0.1-0.2,0.3-0.1,0.6c0.2,0.4,0.8,0.4,1,0.9
			c0.2,0.4-0.3,1.1,0.3,1.4c1.4,0.8,2.2,0.9,4.6,0.5c0.9-0.2,2.1-0.5,2.6-0.7c0,0,0.7-0.7,1.1-1.4c0.6-1,0.6-1,1-1.2l0-0.1
			C745.2,531.4,744.8,531.1,744.5,530.7z"/>
		<path id="XMLID_4884_" class="st4" d="M738,545.8c-0.8-0.6-5,0.6-5.1,0.7c-0.2,0.1-2.4,1.1-2.8,1.5c-0.7,0.6-1.6,1.5-1.9,2.1
			l-0.2,0.3c-0.2,0.2-0.5,0.3-0.7,0.6c-0.2,0.2-0.1,0.3,0,0.4c0.3,0.3,0.7,0.3,1,0.4c0.3,0.1,0.4,0.5,0.6,0.6
			c0.9,0.7,0.9,0.7,1.1,0.6c0,0,1.4-0.5,1.9-1c0.2-0.2,0.3-0.5,0.5-0.6c0.4-0.3,0.9-0.5,1.2-0.8l0.2-0.2c0.4-0.4,0.6-0.5,1-0.8
			c1-0.5,1.2-0.6,1.5-0.9l1.2-1.5C737.3,546.7,738.4,546.4,738,545.8z"/>
		<path id="XMLID_4883_" class="st4" d="M701.3,562.1c-0.7-0.3-3.1-0.3-4.2,0c-3,0.7-3.4,1.4-3.6,1.8c-0.2,0.3,0,0.4,0.2,0.6
			c0.2,0.1,0.4,0.2,0.5,0.4c0.1,0.2,0.1,0.4,0.2,0.6c0.7,1,0.7,1,0.8,1c0.5,0.2,3-0.3,3.2-0.4l2.9-1.2l0.3-0.2
			C701.7,564.7,702.1,563,701.3,562.1z"/>
		<path id="XMLID_4882_" class="st4" d="M774.8,652c-0.3,0-0.5-0.1-0.8-0.9l-0.5-1.9c-4.9-0.9-5-0.9-4.8-1.5c0.2-1-0.1-1.6-0.3-1.9
			l-0.1-0.2c-0.5-0.5-1.2,0.2-1.7-0.4c-0.1-0.1-0.1-0.8-0.1-0.8c0,0,0.1-0.6-0.7-1.4l-0.3-0.3c-2.3-1.4-5.7,3.5-5.7,3.5l1,1.6
			c0.2,0.3,0.3,0.4,0.2,1.1c-0.1,0.3-0.4,0.8-1,1.2c-1,0.7-1.7,2.1-1.6,2.5c0.1,0.4,0.5,0.7,0.4,1.1c-0.1,0.6-0.7,1-0.8,1.6
			c-0.1,0.7,1,0.7,1,1.4c0.2,0.1,0.3,0.1,1.2,0.3c0.5,0.1,0.8,0.5,1.2,0.7c0.9,0.4,0.9,0.4,3.8,0.4c1.7,0.1,1.7,0.1,2,0.5l0.1,0.1
			c0.4,0.4,1,0.5,1.4,0.8c0.3,0.2,0.2,0.3,0.2,0.3c-0.3,0.7,0.6,1,0.6,1c0.1-0.1,0.1-0.1,0.2-0.3c0.2,0,0.3,0,1.2,1.3
			c2.1,3.1,3.2,3.3,3.7,3.5l0,0c1.7-3.6,2.6-5.5,2.6-5.5l-0.1-3.8C777.1,655.3,776,652.2,774.8,652z"/>
		<path id="XMLID_28_" class="st4" d="M621.5,724.9c1,0.4,1.9,0.5,3.1,0.8c1.3,0.2,2.5,0.5,2.6,1.1c0.5,3-3.9,2.2-4.5,4.6
			c0,0,1.3,4.6,1.7,4.8c1.2,0.8,13.6-1.4,17.9-3.8c0.4-0.2,0.8-0.5,1.5-0.1c0.5,0.3,0.8,0.6,1,1.3c0.6,1.8-0.5,3.7,0.3,5.5
			c0.9,2,2.7,3.6,2.8,6.1c0,0.8,1.3,2.4,2.6,3.6c2.7-0.1,5.3-0.1,8-0.2c0.8-1.6,1.6-4.2,1.6-4.4c-0.1-0.4-0.5-0.6-1-0.7
			c-1-0.4-4.2-1.6-4.5-3c-0.8-3.2,3.7-5,2.3-8.3c-0.5-1.1-1.8-1.2-2.5-2c-0.2-0.2-0.5-0.5-0.2-5.2c0.1-1.1,0.1-1.5-0.6-3.9l-0.1-0.4
			c-0.6-1.6-2.4-0.1-3.5-0.9c-2.3-1.5,3-3.8,1-5.8c-2.6,0.4-2.6,0.1-2.4-1.7l-0.3-0.1c4-4.5,4.5-5.1,3.1-6.6
			c-1.4-0.9-6.3-3.4-9.7,2.5c-1.7,2.8-1.8,3.1-3.1,3.9c-2.4,1.6-5.3,1.8-7.8,3.3c-0.7,0.4-1.5,2.1-1.4,3.6c0,1.1-2.7,2.1-2.8,2.1
			c-1.2,0.5-2.3,0.2-3.2-0.1l-5.5-0.9C618,720.1,616.3,722.9,621.5,724.9z"/>
		<path id="XMLID_4878_" class="st4" d="M274.4,677.4c1.4-3.9,5.2-6.3,6.2-10.4c0.2-0.8-0.1-1.2-0.5-1.5c-0.8-0.8-0.8-0.8-0.8-2.9
			c0-2.1,0-2.1-0.2-3.1c-0.1-0.4-0.6-0.7-0.6-1.2c0-0.7,0.3-1.5,0.7-2.8c0.1-0.4,0.5-1.5,0.5-1.9c0-0.2-0.1-0.3-0.3-0.7
			c-0.3-0.4-1.2-1.5-2.8-2l-0.3,0.2c0.4,3,0.1,3.1-3.3,4.8l0.2,0.1c-1,0.8-1,0.8-1.1,1c-0.3,0.6,0.1,1.2-0.1,1.8
			c-0.2,0.7-0.9,1.1-1.1,1.8l0,0.3c1.1,0.8,0.4,3.8,2.1,3.2c-1,3-1.4,3.3-2.9,4.3c-1.9,1.4-2.2,1.7-2.3,2.1
			c-0.4,1.5,1.4,2.2,1.4,3.5c0,0.6,0,0.6-1.5,2.4c-0.8,0.9-1.1,1.7-1.1,2.1c0.1,1.3,1.2,2.2,1.4,3.4c-2.3,1.4-2.3,1.4-2.4,2.4
			c-0.2,1.5,1.9,1.6,1.9,2.9c0,2.1-1.8,4-1,6.2l3.2-0.5c0.9-0.2,0.9-0.2,2.8-4.6c0.1-0.3,0.3-0.7,0.4-1c0.4-1.1,0.3-1.6,0.1-2
			C273.1,684.6,274.4,677.4,274.4,677.4z"/>
		<path id="XMLID_4877_" class="st4" d="M305.6,607.5c-0.1-0.4-0.8-0.3-0.8-0.8c0-0.6,0.5-1,0.6-1.6l0,0c-0.9-0.2-9.3,4.8-8.3,6.6
			c-0.2,0.5-0.2,0.5-2.2,1.3c-0.4,0.2-1,1.7-0.2,2l0.1,0.2c-1.1,0.9-2.5,1.5-3.3,2.6l-0.3,0.4c-0.3,0.4-0.4,0.5-0.8,0.7
			C290,619,288,622,288,622c-0.4,1.3-1.5,2.1-2.2,3.2c-1.4,2.2-2,3-2.3,4.4c0.8-0.2,1.3-0.4,1.8-0.7c0.5-0.3,0.8-0.6,0.9-0.8
			c0.3-0.4,0.3-0.6,0.3-1.1c0-0.8,0-0.8,1.9-3.3c1-1.4,3.4-1.5,3.5-3.7c-0.1-0.1-0.1-0.1-0.5-0.1c0-0.2,0.1-0.3,1.7-1.3
			c0.2-0.1,0.2-0.1,7.1-5.5c0.4-0.3,0.5-0.3,2-0.6c2.4-0.4,3.7-0.9,4-1.4c-0.2-0.5-0.7-0.9-0.8-1.5
			C305.3,609,305.8,608.2,305.6,607.5z"/>
		<path id="XMLID_4876_" class="st4" d="M329.8,587.6c-1.6,1.9-2,2.4-4,3.6c-0.8,0.5-1.3,0.7-2,0.9c-0.9,0.2-1.6,0.8-2.5,1
			c-0.6,0.2-1.2-0.1-1.8,0.1c-0.1,0-0.3,0.1-0.4,0.2c-0.4,0.3-0.8,0.8-1.1,1.2c-0.9,1.2-1.3,2.6-1.9,3.9c-0.7,1.3-2.3,1.6-2.9,2.9
			c-0.8,1.6-1.7,4.5,0.5,3.7c0.3-0.1,0.8-0.5,2.2-1.7c6.4-6,6.4-6,7.4-7.2c0.3-0.3,0.4-0.5,1.5-1.2c2.2-1.5,2.2-1.7,2.3-2.5
			c0-0.5,0.2-0.8,0.6-1.3c0.5-0.6,1.2-0.9,1.7-1.4c0.3-0.3,1.2-2.5,1.3-3C330.5,586.7,330.3,586.9,329.8,587.6z"/>
		<path id="XMLID_4875_" class="st4" d="M349.4,565c-0.5-0.4-1.3-0.1-3,0.8c-0.5,0.3-1.2,0.6-1.8,0.8c-0.3,0.1-0.6-0.1-0.8,0.1
			c-0.2,0.1-0.2,0.1-0.9,1c-1.2,1.5-1.8,2.1-2.4,2.5c-2.3,1.9-2.7,2.1-4.1,2.8c-0.2,0.1-0.6,0.3-0.8,0.5c-0.1,0.1-0.5,0.4-0.5,0.7
			l0.2,0c1.1-0.4,1.9-1.2,2.9-1.7c0.4-0.2,0.8-0.2,1.2-0.4c1.3-0.6,2.8-0.6,4.1-1.1l0,0c0,0,2.6-1.2,2.8-2.6
			c0.1-0.7,2.1-0.6,3.3-0.6c0-0.1,0.2-0.5,0.3-2.4C349.8,565.3,349.8,565.3,349.4,565z"/>
		<path id="XMLID_4874_" class="st4" d="M344.6,572.6c0,0-1.3,1.5,0.2,1.6c-0.1,0.2-1.6,1.2-1.7,1.2c-0.9,0.5-2,0.3-3,0.8
			c-0.5,0.2-0.7,0.9-1.3,1.1l-0.2,0c-0.3,0.5-1.1,2.1-1.1,2.1c0.1,0,0.2,0.1,1.4-0.3c0.8-0.2,1.6-0.7,2.4-0.9
			c0.9-0.3,1.8-0.3,2.7-0.6c0.3-0.1,0.7-0.2,1-0.4c1-0.4,1.2-1.5,1.9-2.2c0.8-0.8,1.8-1.1,2.7-1.7l0.4-2.2L344.6,572.6z"/>
		<path id="XMLID_4873_" class="st4" d="M336.7,574.5c-0.7,0.3-1.1,1-1.8,1.4c-0.7,0.5-1.5,0.8-2.3,1.3c-2.3,1.6-2.9,2.3-3.2,2.7
			c-0.7,0.9-0.7,0.9-0.9,1.1c-0.4,0.3-0.9,0.3-1.3,0.6c-0.1,0.1-0.3,0.2-0.4,0.3c0,0-1.8,1.8-1.9,2.2c0.3,0.1,2.1-0.5,2.8-0.8
			l6.1-3.6c1.4-1.1,3.1-1.7,4.4-2.9c2.3-2.1,2.3-2.2,2-2.9C339.7,573.2,339.7,573.2,336.7,574.5z"/>
		<path id="XMLID_4872_" class="st4" d="M334,583.4c-0.4,0.2-0.8,0.5-1.1,1l-0.1,0.3l0.2,0.3c0,0.2-0.1,0.4-0.3,0.8
			c-0.2,0.3-0.4,0.6-0.5,0.9c-0.3,0.6,0.1,0.7,0.3,0.7c0.5,0,0.8-0.2,0.8-0.2c0.3-0.1,0.5-0.4,0.7-0.6c0.6-0.4,1.3,0,2-0.3l0.2-0.1
			c0.2-0.3,0.4-0.6,0.6-0.8c0.4-0.4,0.8-0.8,1.2-1.2c0.1-0.1,0.2-0.2,0.3-0.4c0.6-0.8,0.5-1.1,0.4-1.3
			C338.4,582.1,335.6,582.4,334,583.4z"/>
		<path id="XMLID_4871_" class="st4" d="M336.5,580.2c-0.6-0.6-4.9,2-5.4,2.3c-1.2,0.7-1.9,1.9-2.9,2.7c-1.6,1.3-3.7,1.9-5.4,3.1
			l-0.3,0.2l-0.2,0.3c0.2,0,7.1-3,7.2-3.1C329.6,585.7,336.3,581.9,336.5,580.2L336.5,580.2z"/>
		<path id="XMLID_4870_" class="st4" d="M302.1,620.8c-1.5,1.9-2.8,4.6-2.7,5.1c0.2,0.1,0.3,0.1,1-0.3c2.2-1.4,2.2-1.5,2.4-2.4
			c0.4-2,3.2-5.8,3.3-5.8C302.6,620.2,302.6,620.2,302.1,620.8z"/>
		<path id="XMLID_4869_" class="st4" d="M303.1,513.4c0.1,0,0.8,0,1.1-0.1l0.2,0c-0.3,0.4-0.7,0.6-1,1l0,0c0,0,0.5-0.1,2-0.8
			c0,0,2.9-1.4,3.7-2.2c0.1-0.1,0.1-0.3,0.2-0.4c0.1-0.1,0.3-0.2,0.4-0.4l0-0.1C309.2,510.1,303.5,512.5,303.1,513.4z"/>
		<path id="XMLID_4868_" class="st4" d="M337.8,515.4c-0.5,0.1-0.5,0.1-0.7,0c0.2-0.4,0.7-0.6,0.9-1l-0.1-0.1c-0.4,0-0.4,0-1.6,0.3
			c-0.4,0.1-0.9,0-1.3,0.2c-0.6,0.3-0.6,0.3-3.4,2c-3.6,2.2-3.6,2.2-3.9,2c0.1-0.1,0.3-0.4,2.6-1.8c0.8-0.5,2.1-1.3,1.9-1.9
			c-2.1-0.5-8.7,2.8-10.7,5.9c-0.3,0.5,1,1.4,5,0.2c0.9-0.3,1.8-0.1,2.7-0.3c0.4-0.1,1-0.4,1.9-0.8c2.2-1.1,4.1-2.5,6.4-3.4
			c0.7-0.3,1.3,0.2,2,0.1c0,0,1.6-0.5,1.7-1C341.3,514.7,341.1,514.7,337.8,515.4z"/>
		<path id="XMLID_4867_" class="st4" d="M382.6,476.3c-0.2,0-0.4,0-0.5,0c-0.1-0.1-0.1-0.1-0.7,0.1c-0.3,0.1-2.5,1.1-3.5,1.7
			c0,0-2.8,2-2.8,2.1c0.1,0,0.2,0,0.7-0.2c0.5-0.2,8.3-3.2,9.3-3.9l0.1-0.1c-0.1,0-0.1,0-0.3,0C384,476.1,383.3,476.2,382.6,476.3z"
			/>
		<path id="XMLID_4862_" class="st4" d="M728.4,714.6c-1.8-1.1-4.5-1.2-4.5-1.2c-0.7,0-5,1.8-5,1.8c-2.1,0.9-3,3-4.5,4.5
			c-0.2,0.2-0.4,0.4-0.5,0.5c-0.2,0.2-0.5,0.4-0.5,0.7c-0.1,0.7,4.1,5.7,6.1,6c1.3,0.2,5.7,0.4,10.1-3.8c2.7-2.6,2.5-4.8,2.5-4.9
			C732,717.6,730.6,716.1,728.4,714.6z"/>
		<path id="XMLID_4861_" class="st4" d="M726.8,694.8l-0.2-0.3c-0.9-0.5-7,1-7,1c-1.5,0.4-2.4,1-2.7,1.8c-0.6,1.4,2.6,1.4,3.9,1.3
			c0.4,0,1.3-0.1,2.5-0.4l4-1.3c0.4-0.2,0.6-0.3,0.5-0.6L726.8,694.8z"/>
		<path id="XMLID_4860_" class="st4" d="M732.4,690.8l-0.2-0.2c-1.3-0.6-5,1-5.3,2.2c-0.2,0.6,0.4,1.1,1.4,1.2l2.2,0.1
			c0.1,0,0.4,0,0.7,0c1-0.1,1.8-0.6,1.9-0.7c0.1-0.1,0.5-0.3,0.3-0.7L732.4,690.8z"/>
		<path id="XMLID_4859_" class="st4" d="M734.6,698.6c-1.4-0.9-3.9,0.9-4.1,1.7c-0.1,0.3,0.2,1.3,1.4,1.9c2.2,1.2,2.8,0.8,3.1,0.6
			C735.7,702.1,736.1,699.7,734.6,698.6z"/>
		<path id="XMLID_4858_" class="st4" d="M738,714.1c-0.8-0.3-1.7-0.1-1.8,0c-0.3,0.2-1,1.6-1,2c0,0.5,1,0.4,2.2-0.9
			C738.2,714.3,738.1,714.2,738,714.1z"/>
		<path id="XMLID_4857_" class="st4" d="M739.8,728.2c-0.8-1.5-2.2-2.5-3.1-3.9c-0.3-0.5-0.4-1-0.8-1.5l-0.2-0.2
			c-0.4-0.2-2.1,0.1-2.2,0.2c0,0-0.9,2.6-1,3c0,0.1-0.1,0.3-0.1,0.4c0,0.6,0.2,0.9,2.1,2.1c0.8,0.5,1.6,0.9,2.3,1.4
			c0.4,0.3,0.5,0.8,0.9,1c0.4,0.2,1.8-1.1,1.8-1.1C740.2,729.2,740.2,728.8,739.8,728.2z"/>
		<path id="XMLID_4856_" class="st4" d="M725.3,685.5c-0.1-0.4-0.2-0.4-0.4-0.6c-1.1-0.6-2.3,0.5-3.3-0.2c-0.4-0.3-0.4-1-1-1.1
			c-0.3-0.1-0.5,0.2-0.7,0.4c-0.3,0.6-0.7,2.6-0.7,2.9c-0.1,0.6,0.3,0.9,0.4,1c0.1,0.1,0.4,0.3,1.9,0.4l4.2,0.2
			c0.2,0,0.5-0.1,0.3-0.7L725.3,685.5z"/>
		<path id="XMLID_4855_" class="st4" d="M668,677.7c-0.7,0.4-1.1,0.7-1.2,0.9c-0.3,0.3-1.4,2.2-1.4,2.2c-0.1,0.5,1.4,1.1,1.8,1
			c0,0,2.4-0.2,3.7-1.2c0.7-0.5,2.9-3.1,2.2-4C672.3,676.3,669,677.2,668,677.7z"/>
		<path id="XMLID_4854_" class="st4" d="M692.7,657.7c-0.9-0.6-1.7-0.7-1.8-0.3c0,0-0.2,0.9,0.1,1.4l0.2,0.2
			c0.3,0.4,0.7,0.8,1.1,1.2c0.3,0.4,0.6,0.8,0.9,1.2l0.1,0.1c0.1,0.1,0.2,0.2,0.4,0.2l0,0c0.3-0.1,0.7-1.3,0.6-2.1
			C694,658.8,693.2,658,692.7,657.7z"/>
		<path id="XMLID_29_" class="st4" d="M639.5,749.1c-1.3-0.5-5.7-2.1-5.7-2.1c-0.5-0.2-1.1,0-1.6-0.1c-0.6-0.2-1-0.8-1.7-0.8
			c-0.9,0-5.5,1-5.6,1c-0.9,0.3-1.8,1.4-1.8,1.4c-0.2,0.2-0.2,0.6-0.2,1.1C628.5,749.4,634,749.3,639.5,749.1z"/>
		<path id="XMLID_4841_" class="st4" d="M876.3,723.7c-0.6-0.3-2.6-0.4-2.3,0.5c0,0.1,0.2,0.4,0.5,0.6c0.4,0.3,0.9,0.5,1.3,0.8
			c0.5,0.3,0.9,0.7,1.3,1l0.3,0.2c0.3,0.2,1,0.5,1.2,0C879.2,725.6,877.2,724.1,876.3,723.7z"/>
		<path id="XMLID_4840_" class="st4" d="M879.6,729.9c0,0-0.1,0-0.3,0c-0.2,0-0.4,0-0.8-0.2c-0.4-0.2-0.7-0.5-1.1-0.7
			c-0.3-0.2-0.4-0.2-0.7-0.2l-1.7,0.4l-0.2,0.1c0.4,0.5,1.3,0.6,1.5,1.4c0.1,0.4-0.3,0.8-0.5,0.8c-0.6,0-0.8-0.6-1.3-0.8
			c-0.1-0.1-0.4-0.2-0.7,0c0,0-1.4,1.6-1.5,1.8l-0.1,0.2c0,0.6,1.6,0.5,2.7,0.5c0.5,0,0.5,0.1,0.1,0.6c-0.2,0.3-0.5,0.7-0.4,0.9
			c0.2,0.6,2.6-0.4,5-4.3L879.6,729.9L879.6,729.9z"/>
		<path id="XMLID_4833_" class="st4" d="M312.4,612.8c-0.2,0.1-0.2,0.1-0.9,1.2c0.8-0.5,1.7-1.1,2.5-1.6l-0.2,0
			C312.6,612.6,312.6,612.6,312.4,612.8z"/>
		<path id="XMLID_4832_" class="st4" d="M545.2,516.4c0-0.2,0.2-0.3,0.1-0.4l-1.8-0.8c-0.3-0.1-0.7-0.1-1.1-0.2
			c-0.4-0.1-0.6-0.2-0.5-0.5c0-0.2,0-0.2-0.1-0.3l0-0.1c0.1-0.1,0.3-0.1,0.4-0.2c-2.5,0.6-5,1.3-7.5,1.9c1.9,0.5,6.7,1.6,9.9,1.1
			c0.7-0.1,0.7-0.2,0.8-0.3C545.2,516.4,545.2,516.4,545.2,516.4z"/>
		<path id="XMLID_50_" class="st4" d="M1173.6,687.7c2.1,4.3,2.4,4.5,4.4,5.8c-0.1,1.5-0.2,3.2,16.6,24.1c0.1,0.1,3.2,4.3,7.5,10.1
			c2.4,0.1,4.8,0.3,7.3,0.4c-11.8-16.8-26-35.6-26.1-35.8c-0.5-0.5-1.2-1.1-1.7-1.6c1.8,2.8,4,5.3,5.9,8c0,0-2.3-2.6-4.9-5.5l0,0
			l0,0l0,0l0,0l0,0l0,0l0,0c0,0,0,0,0.3,0.5c1.5,2.2,3.2,4.2,4.6,6.5c-11.5-13.8-11.7-13.9-14.1-14.5c0.7,1,1.4,2.4,1.8,3.5
			C1174.6,688.7,1174,688.2,1173.6,687.7z"/>
		<path id="XMLID_53_" class="st4" d="M253.2,744.6c88.9,3.8,177.8,6.8,266.7,6.4c1.6,0,3.2,0,4.8,0c0.1-0.3,0.2-0.7,0.4-0.9
			c1.5-2.2,1.9-2.1,2.1-2.1l0.1,0c0.1-0.1,0.1-0.2,0.1-0.7c-0.7-6.3-2.9-6.6-5.5-7c0.1-1.2,0.2-3.2,2.5-8.5c0.5-0.1,1.1-0.2,1.6-0.2
			c1.3-0.6,1.4-0.7,1.5-0.8l0.3-0.2l0.3-0.2l0.3-0.2l0.3-0.3c0.1-0.1,0.2-0.2,0.3-0.3c0.1-0.1,0.3-0.2,0.4-0.3
			c0.1-0.1,0.3-0.2,0.4-0.4c24.2-14.3,24.2-14.3,27.8-14c4.4,0.3,4.5,0.3,6.5-2.5c0.2,0,0.4,0,0.6-0.1c0.4,0.1,0.9,0.1,1.2,0.2
			c0.6-0.4,1.1-0.9,1.7-1.3c0.4-0.2,0.8-0.4,1.1-0.6c-0.8,0.7-1.6,1.3-2.4,2c1.4,0.3,1.4,0.3,3.9,0.5c1.9-0.9,1.9-1.3,1.8-2.4
			c1.1-1.1,1.1-1.1,6.4,1c1.3-2.3,1.3-2.3,1.6-2.8c1.6,0.8,1.9,2.8,3.6,3.6c1.2,0.6,1.2,0.6,4.3,0.2l1.6,0.9
			c1.5-0.4,1.5-0.5,2.4-1.1c0-0.3-0.1-0.6-0.1-0.9c-0.4-2.7,2.1-6.3-1.3-8.2c0-0.2-0.1-0.5-0.1-0.7c0.4-0.3,0.8-0.8,1.2-1.1
			c-0.1-0.2-0.2-0.4-0.3-0.6c-1.1-0.3-2.2-0.5-3.3-0.8c1.1-1.9,0.1-4.1,0.6-6.1c0.4,0.9,0.7,1.7,2.9,4.7c-0.4,0.1-1,0.4-1.2,0.7
			c4.9,1.5,3.3,7.9,7.6,9.9c0.9-0.4,1-0.4,3,0.3c6-3.8,6-3.8,6.3,0c0.4,0.3,0.8,0.6,1.3,0.9c4.9,1.9,4.9,1.9,8.2,1.9l2.5,0.6
			c2.4-1.6,5.5-1.3,7.8-3l3.6-0.4l1.7-1.1l2.8-2.8c-0.4-0.3-0.8-0.6-1.2-0.9c-0.3-0.9-1-1.6-1.5-2.4c4.8,3.7,20.7,0.6,19.8-3.9
			c-0.2-0.8-0.7-1.3-1-2c1.3-1.2,1.3-1.2,3.4-0.6c0.7,1.8,0.7,1.8,3.1,2.2c-0.2,7.6-0.2,7.6,3.9,6.9c0,0.1,3.1,4.3,4.3,3.1
			c0.4-0.5,0.5-1,1.1-4.3c0.1-0.7,0.1-0.7,0.4-4.3c-1.5-1-1.5-1-1.8-1.2c1-0.4,1.9,0.3,2.9,0.3l0.1,0.1c-1.1,2.8-0.1,7.8-0.1,7.8
			c-0.8,2.1-0.9,2.5-0.2,5.4c0.3-0.4,0.6-1.1,0.6-1.6c0.3-0.2,0.3-0.2,7.3,0c0.3-0.4,0.6-1,0.7-1.5c2.1,0.8,2.1,0.8,5.4-0.6
			c1.4,0.5,3.8,1.4,9.4-2.6c0.2-0.1,0.4-0.4,0.6-0.5c-0.1-11-0.1-11,3-14.6c0.8,0.4,1.6,0.8,2.4,1.3c0,0.4,0.3,0.9,0.6,1.2
			c2.5-0.6,5.1,0.2,7.5-1.2c-0.5-2-0.5-2-1.5-2.1c-0.4-1.2-0.1-1.5,0.5-2c1,0.1,2,0.4,3,0.3c0.5-0.7,1.1-1.5,1.5-2.2
			c-0.8-2-4.5-3.7-2.5-6c0-0.2-0.1-0.4-0.1-0.6c-0.4-0.2-1-0.5-1.4-0.7c0.7-0.8,0.7-0.8,2-0.6c0.4-0.3,1-0.8,1.4-1.2
			c-1.1-1.2-3.1-0.7-4.1-2c0.9-3.6-7.9-7.6-8-7.6c0.1-0.4,0-1.1-0.3-1.4c-1.2,0.2-1.2,0.2-2.2,0.6c0.1,0.2,0.1,0.5,0.2,0.7
			c-0.6,0.8-1.5,1.8-2.1,2.6c-0.3,0.3-0.9,0.7-1.3,0.9c-0.1,0.2-0.2,0.6-0.3,0.8c0.2,0.3,0.7,0.7,1,0.8c0.1,0.2,0.2,0.5,0.3,0.7
			c-1.9,3.9-1.9,3.9-1,4.7c-0.1,0.1-2.4,1.6-6.7-0.3c0-0.2-0.1-0.5-0.1-0.7c-0.2-0.1-0.4-0.2-0.6-0.3c-1.2,0.8-9.3,6.5-9.3,6.5
			c-1.5,0.1-3,0-4.4,0.2c-1.5,0.1-1.5,0.1-7.4,3.6c-0.6-0.3-1.4-0.6-2-0.9c-3.8-0.3-3.8-0.3-6.6,1.5c4-5,3.1-13.8,11.7-15.3
			c0.1,0.2,0.3,0.5,0.4,0.8c-0.1,0.2-0.2,0.5-0.3,0.8c2.4-0.1,3.1-1.7,4-3.6c0.6-0.5,1.2-1,1.9-1.5l0.9-1.9l1-1.8l-1.4-0.6l-0.2-2
			l-0.7-1.4c0.8-4.3-6.9-1.4-7-1.4c-0.5,0.2-1,0.8-1.4,1.2c-2.1-0.7-5,0.8-7.6,2.1c0,0,4-4.8,7.4-4.5c0.2-0.2,0.5-0.4,0.7-0.6
			c-0.3-1.1-0.3-1.1-1.1-2.7c1.7-1.4,1.7-1.4,3.9,0.3c0.7-0.7,1.5-1.4,2.2-2.2c-0.3-1.5-0.3-1.5-0.2-2.2c-1.5-1.6-0.2-3.3-0.3-5
			c-0.7-0.1-1.2-0.2-2,0.9c-3.1,0.3-4.6-3.3-4.1-4.1c0.1-0.2,0.4-0.3,0.6-0.5c-0.2,0-0.5-0.1-0.7-0.1c8-0.1,8.2,0,8.9,0.4
			c0,0.2,0,0.5,0,0.7c0.2,0.1,0.4,0.3,0.6,0.4c1.8-0.8,3.4-1.5,3.2-4.3c-1.5-1.3,0.2-5.1,1.8-8.1c1.2-2.1,3.9-2.4,5.1-4.4
			c0.7-1.9,0.9-2.5,2.3-5.1c-1.8-2.5-1.8-2.5-1.6-4.6c5.5,1.3,5.5,1.3,8.6,0.4l3.4-0.3l0.9-1.3c1.6-1.4,1.9-1.7,4.6-0.4
			c2.8,1.1,2.8,1.1,3,1.7c0.2,0.5,0.8,2.2,4.1,2.1c1.3,0,1.3,0,5.6-2.4c0.9-0.5,0.9-0.5,2.1-0.2c0.3,0.1,0.8,0.1,0.8,0.1l4.4-0.6
			l5.4-1.7c0.6-0.3,1.6-1.3,1.6-1.3c0.1-0.5-0.8-2.6-0.8-2.6l-3.6-2.7c0,0-0.5-0.3-1.1-0.6l-0.1,0c0.2-0.3,0.4-0.6,0.4-1
			c0-0.3-0.4-0.4-0.5-0.7c-0.2-0.5,0.3-1-0.2-1.4c-0.3-0.2-0.5-0.3-0.9-0.5l-0.2-0.1c-10.7-4.9-10.7-4.9-13.9-2.9
			c-0.2-0.5-0.4-1.1-0.6-1.6c-11.1,3.9-17.5,16.6-30.8,16.5c-0.7,0.8-1.8,1.9-2.7,2.6c-1.5-1.2-5.1-4-14,2c-0.1,1.1-0.3,2.5-0.4,3.5
			c-5.7,0.5-12.1,4.1-8.7,9.3l0.8,1.6c0,1.5,0.9,3.4,1.7,4.7c-3,2.5-9.3,4.6-9.3,4.6c0.1,0.5,0.2,1.3,0.2,1.8c2,0.3,2,0.3,5.6-0.9
			c-3.9,6.4-10,5.3-18.3,3.7c-7.8-1.5-10.6,6.5-16.4,8.7c3.6-3.6,3.6-3.6,3.9-4c-0.6-0.8-1.3-2.1-1.6-3c1.5-2.5,2.7-2.4,4.7-2.2
			c1.3-0.3,1.3-0.3,1.4-0.3l0.3-0.2l0.3-0.2l0.6-0.4l0.3-0.2l0.2-0.2l0.2-0.1c0.9-0.5,2-1.4,2.7-2.2c-0.3-0.4-0.7-1-1-1.5
			c0.1-0.4,0.2-0.9,0.3-1.3c-0.5-0.1-1.2-0.2-1.7-0.3c-0.2-0.5-0.5-1.1-0.7-1.6c0.7-0.8,1.4-2,1.8-3c-0.5-0.5-0.5-0.5-6.5-1.6
			c-0.4-0.9-1.3-1.9-2.1-2.4c-0.6,2.2-1,3.4-9,5.5c-0.1-0.5-0.2-1.2-0.3-1.7c0.5-0.3,1.1-0.6,1.6-0.9c-4.7-2.6-9.4-5.3-14.1-7.8
			c0.1-2.6-3.6-4.8-1.3-7.6c-0.1-0.5-0.2-1.2-0.3-1.7c-1.5-0.9-1.5-0.9-4.1-3.2c2.2-8,2.2-8,6.6-11.8c-2.5-6.5-20.6-8.2-22.5-6
			c-0.3,0.4-0.4,1.2-0.6,1.7c3.1,2.2,3.1,2.2,4.5,2.3l0.1,0.1l0.1,0.1l0,0l0,0l0,0l0,0c4.3-0.1,7.5,3.6,11.8,3.5
			c-0.4,0.4-0.9,1-1.3,1.4c-6.3-0.2-12-3.7-18.4-3c-2.2,3.4-8.5,9.6-8.6,9.7c-0.2-0.5-0.5-1.1-0.8-1.6c-1.3,0.2-1.3,0.2-4.7,2.6
			c0.2-0.6,0.5-1.4,0.7-1.9c-0.4-0.8-0.4-2.2-0.1-3.1c6.4-0.9,6.4-0.9,8.4-3.1c-0.6-0.8-1.7-1.7-2.7-2c1.6-2.8,1.7-2.8,4.1-3.9
			c-1.3-2.7-1.1-3.2,0-5c-0.3-0.5-0.6-1.1-0.9-1.6c-1.8-0.3-1.8-0.3-4.7-2.1c-2.3,0.6-4.4,1.2-8.3-4.6c-2.7-0.4-3.1-1-3.3-3.1
			c-0.4-0.3-1-0.8-1.5-1.1c0.2-1,0.7-2.3,1.1-3.3c-0.5-0.3-1.1-0.6-1.5-0.8l0,0l0,0l0,0l0,0l0,0l0,0l0,0c-0.2-0.5-0.4-1.2-0.6-1.7
			c3.7-1.4,6.7,3.9,10.6,1.2c3.3-2.4,6.4-8.9,3.6-11.2c-1.8-1.5-4.3-1.9-5.8-3.7c0.9-9.9,0.9-9.9-0.8-11.8c0.7-0.9,1.8-2,2.7-2.7
			c-2.4-9.8-2.4-9.8-2.8-10.1c-3-2.7-7,1.1-10-1.5c3.3-1.9,11.5-4.3,11.5-4.4c-0.2-0.5-0.4-1.1-0.5-1.6c-5-0.8-9.7,1.7-14.7,1.5
			c5.5-4.7,15.3-4.2,16.5-14c-11.2,3.6-11.2,3.6-15.9,2.1c-0.6-2.4-0.7-3.1-7.3-3.6c-1.8,0.5-3.6,1-5.4,1.5c0,0,0-0.1-0.1-0.1
			c1.6-0.5,3.3-0.9,4.9-1.4l-1.3-0.1c-0.9-0.1-2-0.3-2.8-0.5c0.3-0.2,0.7-0.5,1-0.7c0-0.1,0-0.3,0.1-0.4c1.9,0.5,3.9,0.9,5.9,0.9
			c2.5-0.7,5-1.3,7.5-2c-2.1-1-4.9-0.2-6.5-2.4c-3.5-0.5-6.8-2-10.4-2c0-0.3,0-0.8,0-1.1c-0.7-0.1-1.7-0.3-2.5-0.5
			c4.1-0.6,4.1-0.6,5-2.3c-1.5-0.6-3.2-0.2-4.7-0.5c-1.6-2.6-1.6-2.6-11.9,1.2c0.4-0.5,1-1.1,1.5-1.6c0.2-0.3,0.4-0.7,0.6-1
			c0.3-0.7,0.4-0.7,0.4-0.8l0-0.1c-2-3.3-2-3.3,5.6-8.8l2.9-0.6l-0.4-0.8l0,0c-0.3-0.1-0.7-0.2-1-0.3c-0.2-2.1-0.2-2.1-1.1-3
			c-0.3-0.6-0.4-0.6-0.4-0.6l0-0.1l0-0.1c2.8-2.4,6-4.3,8.5-7.1c-0.6-1.5-0.6-1.5-2.7-2.2c-0.1-0.6-0.2-1.5-0.1-2.2
			c1.5-0.5,2.7-1.5,4.2-1.9c-0.6-1.7-0.8-1.9-2-2.7c4.8-5.7,4.8-5.7,5-7.7c0.3-0.1,0.8-0.3,1.1-0.4c-0.8-0.2-1.8-0.6-2.5-0.9
			c4-1.8,4-1.8,4.4-2.3c4.1-0.7,4.1-0.7,6.2-1.8c-0.2-0.3-0.6-0.7-0.8-1c0.1-0.3,0.2-0.7,0.3-1c-0.3-0.1-0.8-0.1-1.1-0.2
			c0.6-0.3,0.6-0.3,4.5-1.4c-0.6-0.5-0.6-0.5-3.4-0.9c3.1-1.8,7-0.8,10.1-2.8c-2.7-0.5-5.6-0.1-8.2-1.1c0-0.6,0.2-1.5,0.6-2.1
			c-2.7-1-5.7-0.2-8.3-1.4c0.3-0.2,0.8-0.5,1.1-0.7c-6.9-5.1-14.2-0.2-21.2-0.8c0.2-0.4,0.4-0.9,0.6-1.2l-0.9-0.2
			c0.2-0.2,0.5-0.4,0.7-0.6c-1.9-0.3-1.9-0.3-35.6,9.1c-0.1,0.3-0.3,0.7-0.5,1c0.4,0,0.8,0,1.2,0c-3,1.8-6.5,2.1-9.7,3.3l0.1,0.3
			c0,0.3,0.1,0.8,0.1,1.1c-0.3,0.1-0.7,0.3-1.1,0.5l-2.2,0.4c0.3-0.2,0.7-0.4,1-0.6c-1.5-0.3-3.1,0.4-4.6-0.5
			c0.1-0.4,0.2-0.9,0.2-1.2c0.6-0.4,1.2-1.1,1.4-1.7c2.9-1.2,6.2-1,9.1-2.3c0.1-0.3,0.2-0.8,0.3-1.1c-4.2,0.1-4.2,0.1-5.8,0.5
			c0.3-0.2,0.6-0.5,0.9-0.7c0.1-0.3,0.1-0.3,0.1-0.3l0,0l0,0l0,0c-11.7-1.2-27.9,7.2-28.2,8.8c-1.1,1.2-2.5,1.9-3.7,2.9
			c1.5,0.3,3.1,0.2,4.5,0.8c-2.5,2.3-21.3,5.8-21.4,5.8c0.2-0.3,0.5-0.7,0.7-1c-0.3-0.2-0.3-0.2-4.2-0.1c0.7-1,0.7-1,3-1.9
			c0.5-0.4,0.5-0.4,0.5-0.4l0,0l0,0l0,0l0,0l0,0l0,0l0,0c-0.1,0-20.5,4-27.5,7c1.2,0.1,1.2,0.1,3.6-0.4c-0.5,0.2-1.1,0.4-1.6,0.6
			c-0.1,0-8.2,2-9.3,4.6c-2.7,1.1-2.7,1.1-3.8,1.4c0.6-0.4,1.5-1,2.2-1.3c-0.3,0.1-0.8,0.2-1.1,0.3c1.1-0.7,1.1-0.7,3.1-1.5
			c-2.7-0.2-15.5,6.2-16.2,7.3c3.2,0.5,6-1.4,9-2c-0.1,0-20,8.3-26.4,10.7c0.2,0.3,0.5,0.7,0.8,0.9c0.4,0,0.8,0,1.2,0
			c-0.5,0.5-1.2,1.1-1.7,1.5l0.1,0.5c-2.5,1.3-2.5,1.3-7.1,3.9c0.2,0.1,0.4,0.1,0.6,0.2l3.9-1.5l1-0.1c1.2-0.4,2.4-0.9,3.6-1.4
			c-2.4,2.1-5.6,2.4-8.2,4.1c0.3,0.1,0.8,0.2,1.2,0.3l0.8-0.2l0.6,0.2c1,0,1,0,3.7-0.7c-6.4,4-14.3,3.9-20.8,7.6
			c-0.6-0.2-1.6-0.3-2.2-0.1c-1.1,1.1-1.7,2.2-2.2,3.3c0.4-1.2,0.9-2.3,1.4-3.4c-1.5,0.4-2.8,1.4-4.4,1.5c-0.4,0-0.4,0-0.6-0.1
			c0.1-0.2,0.4-0.3,0.5-0.4c-0.7-0.5-1.2,0.2-1.8,0.3c-0.4,0-0.8-0.2-1.2-0.1l-0.1,0c-0.1,0-0.2,0-0.5,0.1c-1.4,0.4-2,0.6-2.3,0.3
			c-1.3,0.5-2.4,1.5-3.9,1.5c0.2-0.3,0.5-0.4,0.7-0.6l-0.1-0.1c0.1-0.4,0.9-0.6,0.5-1c0-0.1,0-0.1,0.2-0.3c-0.5-0.3-4.1,1-5.2,1.5
			c-0.8,0.4-1.2,0.5-1.3,0.5l0.1-0.2l-0.4,0.1l0-0.2l0.2-0.1c-0.8,0.1-4,2.1-4.6,2.8c0.7,0,1.1-0.7,1.8-0.7l-1.8,1.1l1.3-0.5l0,0.1
			c0,0,0,0,4.2-1.5c0.1,0.3,0,0.4-0.3,0.5c0,0-1.5,0.8-1.8,1c0.2,0.2,0.3,0.2,0.7,0c-0.2,0.2-0.5,0.5-0.7,0.7
			c-1.1,0.6-1.3,0.8-1.5,1c0.5,0.1,2.3-0.8,3.3-1.2l0.3,0.3c0.4-0.2,0.8-0.3,1.2-0.5c-0.5,1.2-1.8,1-2.7,1.6l0,0.1l0.2,0.2
			c0.3-0.1,0.8-0.3,1.1-0.4l1-0.3l1.3,0l0.2,0c-0.1,0.2-0.1,0.4-0.2,0.5l0.1,0.1l0.2,0l0,0.1c0.1,0,0.1,0,2-0.7l0,0.1l0.1,0
			c1-0.4,1.8-1.3,2.9-1.6c0,0,2.4-0.4,3.2-0.2l0.2,0.1c-0.1,0.1-0.1,0.1-0.3,0.3c0.4,0.1,0.7-0.2,1.1-0.2l0,0.1c1,0.3,1.1,0.3,5-1
			l0.2-0.1c0.6-0.3,1.5-0.7,2.1-1c0.3,0.2,0.7,0.4,1,0.6c0.9-0.3,2.2-0.2,3.1-0.2l1-0.2l0.9,0.2l0.7-0.1c2.3,1,4.2-1.6,6.5-0.6
			c7.6-0.9,13.9-5.8,21.6-6.4c0.5-0.2,0.9-0.3,1.3-0.5c4.7-1.7,9.6-0.9,14.4-1.5c0,0.4-0.1,0.8-0.1,1.2c1.8,0.7,2.1,0.7,3.5,0.7
			c-2.2,1.7-5.2,1.6-7.3,3.4c0.1-0.6-0.1-1.6-0.4-2.1c0.4-0.5,1.1-1.1,1.7-1.4c-3.6-1.7-23.3,5.7-25.5,6.8c-0.2,0.1-0.2,0.1-0.2,0.1
			l0,0l0,0l0,0l0,0l0,0l0,0l0,0.1l0,0.1c0.4,0.8,1.2,2.7,9,2.3c6.1,6.3,11.7-5,18.3-3.1c-0.8,0.2-2,0.5-2.8,0.8
			c-0.7,0.3-1.6,0.7-2.2,1.1c0.4,0.1,0.8,0.2,1.2,0.2c0.3,0.6,0.8,1.4,1.2,1.9c-0.9,1.2-1.1,1.5-3.6,3.2c-0.9-0.2-0.9-0.2-3.4,0.6
			c0.1,0.3,0.3,0.8,0.4,1.1c-0.6,0.5-1.3,1.1-1.8,1.7l0.1,0.2c1.4,0.7,3,0.5,4.5,0.9c-2.9,0.3-2.9,0.3-8.2,4.5
			c0.3,0.6,0.8,1.5,1.3,2c-0.3,0.3-0.6,0.6-0.9,0.8c0.1,0.4,0.2,1,0.3,1.5l0.6,0.2l0.5,0.2l0.4,0.6c-0.1,0.6-0.4,1.5-0.7,2.1
			c0.3,0.2,0.7,0.6,1,0.8c-4.8,4.7-4.8,4.7-4.5,6.2c1.6,0,1.7,0,3.5,0.7c-0.2,0.7-0.9,1.4-1.5,1.8c-10.4-3.6-9.1,12.9-16.4,16.6
			c1.8,2.4,3.2,1.7,3.9,1.3c0.8-0.4,0.8-0.4,0.8-0.4l0,0l0,0l0,0l0,0c1.3,0,2.3-0.7,3.5-0.9c-4.7,5.9-4.7,5.9-4.7,6.2
			c2.5-0.6,4.5-2.4,6.8-3.4c-15.8,17.6-15.8,17.6-17.4,18.2c1,2,2.2,4.1,3.4,6.1c-1.2-2.1-2.4-4.1-3.5-6.1c-0.3,0-1,0-1.5,0.7
			c-0.8,1-1,2.3-1.6,3.3l-3.7,4c-0.1,0.1-0.3,0.2-0.4,0.4c0,0-1,1.1-1.5,2.1l-0.1,0.2c-0.4,0.7-1.1,0.9-1.5,1.6
			c-0.3,0.6,0.3,1.4-0.4,1.9c-0.3,0.3-0.7,0.1-1-0.1c-1.1-0.5-3.2,0.8-3.6,1c0,0,0.3,1.6,1.7,1.6c0.8,0,1.1,1,1,1.2l-3.1,3.3
			c-0.7,0.5-1.6,0-2.4,0.3c-0.1,0-0.4,0.1-0.5,0.2c-1.1,0.8-0.8,2.6-2,3.4c-0.9,0.6-1.2,0.4-1.7,0.3c-0.2-0.1-0.7-0.3-2.6,1.2
			c-0.7,0.5-1.1,1.2-1.3,1.4c0.1,0.3,0.4,0.4,0.5,0.6l-0.1,0.1l-0.1,0.1l0,0l-0.2,0.2c-0.4,0.3-1,0.7-1.4,1
			c-1.4,0.7-2.2,1.3-3.1,1.8c-0.3,0.4-0.7,1-1,1.4l0.1,0.1l0,0l1.4,0.4l0,0l0,0.1l0.1,0.1l0.1,0.1l0.1,0.1l0.1,0.1l0.1,0.1l0,0.1
			c-0.2,0.5-0.4,1.2-0.5,1.7c-1,0.3-2.4,0.2-3.4-0.2c-0.9,0.6-0.9,0.6-4.6,7.5l0,0c1.1,0,2.6-0.2,3.7-0.5c0,0.5,0,1.3,0.1,1.8
			c-7.1,3-11.8,13.7-11.9,13.8c-0.3,1.3-0.3,1.3-0.3,1.4l-0.1,0l0,0l0,0l0,0l0,0l0,0v0l1.2,0.7l0,0l0.1,0.1c0.2,0.5,0.6,1.2,0.8,1.7
			c-0.5,0.1-1.2,0.2-1.7,0.3c-0.2-0.2-0.5-0.4-0.7-0.6l0-0.1c-3.3,0.3-6.7,0.7-7.4,3.1l0,0c0.5,0.2,1.2,0.4,1.6,0.6
			c-7.2,3.6-7.2,3.6-7.1,6.8l0,0l0.5,0.1c-0.1,0.6-0.6,1.5-0.3,2l0,0.1c0.5,0,1.2,0.1,1.8,0.1c0.1,0.5,0.3,1.2,0.4,1.8
			c-0.7,0.8-1.9,1.6-2.9,1.9c0.6,4.8,0.6,5.1,3.3,6.6l0.1,0c-0.8,0.8-2,1.9-2.9,2.6c0.1,0.5,0.3,1.2,0.4,1.7c-3,2.8-3,2.8-3.2,4.4
			c0.3,0.7,0.6,1,0.8,1.3l0.6,0.9c-2.4,3.1,0,8.9-5.2,10.3c-0.6,0.5-0.5,0.6-0.5,0.6c-1.2,2.1-0.4,4.8-2.3,6.7
			c-0.5-0.1-1.3-0.1-1.8-0.2c-0.3,0.5-0.8,1.1-1.1,1.6c-5.1-1-4.8-3.6-4.3-8.5c-0.4-0.3-1-0.8-1.4-1.1c-12.5,5.8-16.9,19.4-27,27.5
			c-12.9,9.9-23.5,18.7-32.1,27.4C220.9,743.2,237.1,743.9,253.2,744.6z M592,691.1c-3.1,2.5-6.2,5.1-9.4,7.7c0,0,0,0,0,0
			C585.7,696.2,588.9,693.7,592,691.1z M517.6,511.4c2.3,0.5,4.6,1.3,6.8,2.1c-2.9,0.1-5.9,0.9-8.8-0.5c-0.8,0.2-1.8,0.5-2.5,0.8
			C514.8,510.8,516,510.7,517.6,511.4z"/>
		<path id="XMLID_57_" class="st4" d="M771.4,594.8c-0.7,1.4-3.5,1.9-2.6,3.8c0.6,0.2,1.5,0.5,3.5-0.3c0.1,0.4,0.1,0.4-0.4,2.1
			c1.7,1.4,1.7,1.4,5.1,1.3c-0.3,0.6-0.9,1-1.2,1.7c0.6,0.8,1.9,2.5,2,2.6c2.4,0.9,2.4,0.9,2.4,0.9c0.3-0.3,0.8-0.7,1-1
			c0.2,0,0.5,0,0.7,0.1c0.1,1,0.3,1.2,0.7,1.9c1.2-0.2,2.2-1.1,3.4-1.3c-0.1,0.4-0.5,0.9-0.8,1.1c-0.1,0.4-0.1,1-0.1,1.4
			c0.5,0.3,1.2,0.6,1.7,0.7l0.5-0.1c0.1,1.6-1,3.1-0.4,4.8c2.3,1.1,6.3-0.1,5.6-2c0,0-0.4-1.1,1.2-1.6c0.2,0.2,0.4,0.4,0.5,0.6
			c-0.7,2.4-0.7,2.4,1.5,4.6c0,0.2-0.1,0.5-0.2,0.7c-3,1.4-3,1.4-3.3,1.8c0.2,1.1,0.2,1.1,2,1.6c3.7-0.2,7.3,0.9,10.9,0.4
			c0.1,0.2,0.3,0.4,0.4,0.6c-0.2,0.2-0.4,0.4-0.6,0.6c-0.3,0.6-0.3,0.6-0.3,0.6l0,0c5.9,0.4,6.5-0.9,8.1-4.7
			c-0.1-0.2-0.2-0.4-0.3-0.5c-1.3-0.1-2.4,0.4-3.7,0.4c0,0-0.9-2-0.8-2.7c2.1-0.2,3.8-1.6,5.9-1.7c0,0,4.6,2.7,7.6-2.5
			c0.5-0.9,0.5-0.9,5.5,1c0.7,1.8,4.2,2,6.2,2c0.3-0.2,0.8-0.6,1.1-0.9c0.2-0.2,0.3-0.5,0.5-0.7c1-1.1,3.7-1.3,3-3.3
			c1.7-0.4,3,1.5,4.8,0.8l0.6-0.7c0.4,0,0.9,0.1,1.3,0.3c-0.1-1.1-0.4-2.2-0.3-3.3c-0.7-0.8-0.7-0.8-1-2c0.2,0.1,0.4,0.1,0.5,0.2
			c4.1,1.6,4.1,1.6,5.8-0.3c-0.2-0.9-0.2-0.9-4-4.3c0.1-0.9,0.1-0.9,1.1-1.5c1.3,1.3,2,3,3.5,4l1.8,0.1c0,0,1.7,1,3.3,1.5
			c4.2,5,8.8,9.7,13.3,14.4c-0.4,0-0.9,0-1.3,0.1l-0.7,0.3l-0.7,0.5l-1.4,0.2c-3-0.3-3-0.3-3.4-1.1c-0.7-0.1-1.3-0.4-2-0.6l-0.8,0.2
			c-1.2,0.1-1.2,0.1-2.2-0.2c-1.6-1.3-1.6-1.3-3.2-0.6l-0.6,0.4c-0.3,0.1-0.7,0.1-1,0.2c-0.2-0.2-0.3-0.6-0.4-0.9
			c-0.3,0-0.8-0.1-1.2-0.2l-0.8,0.3l-1,0.9l-1.1,0.3l-0.4,0.2c-0.6,0.6-0.6,0.6-0.1,3.4l-0.3,0.5c1.3,2.7,4.3,6.8,4.3,6.8
			c0.3,0.2,0.3,0.2,0.3,0.2l0,0l0,0l0,0l0.1,0l0.1,0l0.1,0l0.1,0c0.3,0.2,0.9,0.2,1.3,0.1l-0.2,1.2c0,0.3,0.1,0.7,0.2,0.9
			c-0.7,0.8-0.7,0.8-0.8,1.2c0.9,0.8,0.9,0.8,1,1c1.1,0.2,2.2-0.5,3.3,0c0,0.4,0,0.9,0,1.3c0.9,0.4,1.7,1.1,2.8,1.2
			c0.5,0.9,0.5,0.9,4.2-0.2c0.9,0.8,1.4,2.5,1.3,4.5c-0.3,0-0.7,0.1-1,0.2c-0.2,0-0.2,0-0.2,0l0,0c-1.7,0.5-1.7,0.5-9-4.1
			c-1.1-0.3-1.1-0.3-1.7-0.3l0,0l0,0c-4.1,1.3-6.1-3-9.6-3.4l-0.5,0.1c5.1,3.2,10.3,6.3,15.5,9.4c0,0-0.1,0-0.1,0
			c-5.3-3.1-10.5-6.2-15.7-9.3c-1.2,0.1-1.2,0.6-1.3,1.5c0.4,1.2,0.4,1.2,0.2,2l0.1,0.5c0.2,0.1,0.4,0.3,0.6,0.4
			c0.5,0.4,0.5,0.4,3.2,0.4l0.2,0.5l-0.9,0.2l-0.6,0.8l0,0.9l0,0.7c1.7,1.2,2.9,2,3.3,2.2l0.1,0.4l0,0l0,0l0,0l0.1,0l0.1,0l0.1,0
			l0.1,0l0.1,0c2,1.2,2,1.2,1.8,2.2l-0.8,0.4l-1.3-0.4L847,645l-0.3-0.1l-0.5-0.3c-0.5,0.1-0.5,0.1-2.5-0.1l-0.8,0.3l-0.7,0.4
			l0.3,0.5c-0.6,1.6-0.6,1.6-0.5,3.1c1.1,2.3,1.1,2.3,1.1,2.7c0.7,1,4.8,3.7,6,3.5c0-2.2,0.5-2.5,1.1-2.9c0.2,0.5,0.3,0.6,0.9,1
			c-0.3,1.7-0.3,1.7-0.1,2.2c0.1,0,0.3,0.1,0.5,0.2c2.4-1.9,2.4-1.9,3.6-0.2l-0.6,0.7c-0.1,0.3-0.3,0.8-0.4,1.1l0,0.1l0,0
			c1.6,1.1,3.5,0.7,5.2,1.2c0.5-0.4,1.2-0.5,1.7-0.9c1.5,0.4,1,2,1.7,2.9c0.1,0,2.9-0.6,4-1.5c0.4,0.2,0.4,0.2,1.5,2.7
			c2.3,1.9,2.3,1.9,2.7,2.1c0.1,1,0.1,1.6,2.2,2.5c1.9,0.9,1.9,0.9,3.4,4.1c0.4,0.7,0.4,0.7,2.1,1.4c0.7,1.5,0.7,1.5,0.9,4.2
			l0.8,0.9l1,0.7c0.2,0.1,0.6,0.3,0.8,0.5c-0.1,0.2-0.2,0.5-0.3,0.8c-0.1,0.3-0.2,0.8-0.3,1.2c0,0.3,0,0.3,0,0.3l0,0
			c0.2,0.3,0.3,0.9,0.3,1.3c-0.2,0.7-0.2,0.8-1.3,1.7l-0.4,1.2c-0.2,2.5-0.2,2.5-0.3,3.2c3.1,4.8,3.1,4.8,2.6,8l0.3,0.7
			c1.2,3.2,1.2,3.2,1.2,4.3c-2.2,0.4-1.8,5.7-1.7,8c0,0.3,0,0.3,0,0.2c-0.2,2.4-0.2,2.4-0.9,4.2c-0.1,1.3,1.3,2.2,0.9,3.6
			c-0.5,1.9-2.1,3-3.1,4.5c0.2,0,0.5,0,0.8,0c0.5,1,0.5,1.1,2.2,1.9c0.2,0.8,0.2,0.8-0.4,2.3c-1.8,4.1-1.8,4.1-0.4,5.4
			c0,0.6,0,0.8-0.7,1.3l0,0l-0.2-0.5c-0.1,0-0.3-0.1-0.5-0.2c-1.1,0.7-2.7,2.3-3.1,2.6l-0.9,0.6c-0.9,0.4-1.8,0.8-2.7,1.2
			c0,0.1,0,0.3-0.1,0.5c1.6,1.2,2.9-0.6,4.4-0.5c0,0.3-0.1,0.6-0.2,0.9c-0.4,0.3-0.9,0.6-1.3,0.9l-1.1,0.3c-1.7,0.5-1.7,0.5-2.7,0.5
			l-1-0.1c-2.1,0-2.5,0.8-2.4,1.7c4.5-0.2,9-0.4,13.5-0.7c-0.1-1.1-0.2-3.8,0.8-4.7c0.1,0.2,0.2,0.4,0.2,0.6
			c-0.3,0.5-0.9,1.9-0.8,4.1c57.4-2.9,114.8-5.9,172.3-8.8c43.4-2.2,86.8-5.4,130.2-3.6c4.6,0.2,9.3,0.4,13.9,0.7
			c-2.1-2.5-5.1-6-9.5-11.3c0.3,1.1,0.6,2.6,0.6,3.7c-1.5-4.9-6.8-9.1-17.4-17.6c0.3,0.5,0.8,1.1,1.1,1.5c-0.4,0.4-0.9,0.9-1.3,1.3
			c-29-29.3-33.7-32.5-35.2-33.6c0.2,0.6,0.4,1.4,0.5,2c-0.6,0-1.3-0.1-1.8-0.1c0.9,2.3,1.4,4.8,2.4,7c-0.5-0.2-1.2-0.4-1.7-0.6
			c1.2,4.5,3,5.1,4.6,5.6c0.2,0.5,0.4,1.2,0.6,1.7c-2.8,1.8-2.8,1.8-4.1,3.7c-10.5,0.7-8.7-12-14.2-17.1c-0.4,0.4-0.9,1-1.3,1.4
			c-7.1-2-8.6-14-18.1-11c-0.5-0.3-1.1-0.6-1.6-0.9l0,0l0,0l0,0l0,0l0,0l0,0l0,0c0,0,0,0-1.2-0.6c-0.6-1-0.8-2.6-0.6-3.7
			c-0.9-0.6-2.1-1.5-2.9-2.3c0.2,1,0.3,2.1,0.5,3.1c-0.2-0.2-0.5-0.4-0.8-0.6c-0.3-1.2-0.5-2.4-0.8-3.6c-1-0.8-2.7-1.5-3.9-1.5
			c-0.9-2.7-1.6-5.4-2.7-8c1,0.7,2.4,1.7,3.3,2.6c-1.7-4.1-6-5.7-8.7-8.8c0.2-0.6,0.4-1.4,0.5-2c-0.4-0.4-1-1-1.4-1.5
			c-2.8-2-6.3-2.9-9-4.9c-14.8-8.7-14.8-8.7-17.3-9.5l-1,0.2c-4.4-4.3-4.9-4.5-12.8-7.7c-0.8,0.8-1.6,2.4-1.7,3.6
			c1.1,0.3,2.5,1.4,3.1,2.3c-3.5-2.4-3.5-2.4-5.8-2.2c-6.9-6-9.8-3.7-11.3-2.5c-0.1,0-10.6-7.1-13.9-10.4l-1.7-1.2l-1.1-1
			c-7.3-4.3-7.3-4.3-8-4.7c-0.6-0.4-1.3-0.8-1.9-1.2c-0.3-0.2-0.6-0.4-0.9-0.6c-2-1.4-2-1.4-14.6-3.7c-0.3,0.5-0.8,1.2-1.1,1.7
			c0.4,1.2,0.8,2.8,1.1,4c-3.2-0.5-6.1-2.9-9.7-1.7c-0.2,0.6-0.5,1.3-0.7,1.9c-0.6-0.1-1.4-0.2-2-0.3c2.5-2.7,2.6-4.5-3-7.9
			l-0.3-0.1l-1.6-0.7l-2.3-1.8l-1.8-0.8l-1.6-0.7c-1.1-0.9-2.9-2-4.3-2.2l-2.7-1.1c-0.9-0.5-1.8-1-2.7-1.5l-2.2-1.2
			c-2.5-1.5-5.3-2.6-7.7-4.4c-1.6-1-1.6-1-4.5-4.8c-2.3,1.1-2.3,1.1-5.5,3c-5-3.2-12.9-0.3-15.7-7.9c3.7-1.3,4-1.4,6.6-2
			c0.1-0.6,0.2-1.5,0.4-2.1c-6.1-6.5-15.5-6.3-22.5-11l-0.1,0l-0.2-0.1l-0.3-0.1l-0.3-0.2l-0.3-0.2l-0.3-0.2l-0.3-0.2
			c-0.1,0-0.2-0.1-1.3-0.8c-12.3-5.8-12.3-5.8-79.5-15c-0.9,0.9-2.2,2.1-3.2,2.8c-1,0.5-2.2,1.1-3.2,1.5c-1.1-0.7-2.5-1.5-3.7-2
			c1.1-0.6,2.5-1.5,3.5-2.4c0.6-0.3,1.4-0.7,2.1-1c-13.7-6.7-13.7-6.7-37.3-7.1c0.9,0.8,2.3,1.7,3.4,2.2c-0.1,1.3,0,3,0.3,4.3
			c3.1,1.9,6.5,3.3,9.5,5.3c-1.2,0.4-2.8,1.3-3.7,2.3c0.2,0.5,0.5,1.2,0.8,1.7c-0.6,0.2-1.5,0.4-2.1,0.6c0.4,0.5,0.9,1.1,1.2,1.6
			c-0.6,0.1-1.5,0.2-2.1,0.2c1,0.8,2.6,1.4,3.8,1.7c0,0.2,0.1,0.4,0.1,0.6c-0.6,0.3-1.2,0.6-1.3,0.8c0,0.1,0.1,0.2,0.7,0.3
			c0.4,0,0.4,0.1,0.4,0.2c0,0.1-0.2,0.4-0.4,0.6c-0.3,0.3-0.3,0.3-0.4,0.4c-0.1,0.2,0,1.1,0.4,1.2c0.2,0,1.7,0,3.2-0.4
			c0,0,2.4-0.7,2.5-0.9l-0.1,0c0.6-0.5,0.9-0.8,1-1c3,0.9,8.9,2.3,15.1,3.6c-0.5,0.1-1.1,0.1-2.2,0.2c-0.4,0.6-1.2,1.4-1.7,0.5
			c-0.8-1.4-3.6,0-3.6,0c0.7,0.6,1.3,1.4,2.1,2c-0.1,0.3-0.2,0.5-0.4,0.7c0.9,0.5,0.9,0.5,1.3,1.5c0.9,0.1,1.8-0.3,2.7,0.1
			c-2.2,0.3-4.9,0.8-7.2-2.5c0.8-0.8,0.8-0.8,0.7-1c-0.5-2.5-7.5,3.4-7.6,3.4c1.3,1.7,4.5,2.1,5.1,2.1l0.1,0.2
			c-2.1,1.6-4.4-1.4-4.4-1.4c-3.1-0.3-3.9,2.8-4.2,3.8c0.2,0.1,2.3,0.4,4.1,0.5c-1.1,0.5-1.2,0.6-2.3,0.9c0,0,5.8,1.3,6.9,0.8
			c0.2,0.3,0.2,1.4,0.2,1.6c-0.3,0.3-0.8,0.3-1.1,0.7c0.5,0.5,1.3,0.4,2,0.8l-0.1,0.2c-0.5,0.1-1.3,0.3-3.3-1c0-0.1,0.1-0.3,0.1-0.5
			c0,0-1.1,0.6-1.5,0.9c0.2,0.2,0.2,0.2,0.6,0.4c3.5,1.7,3.5,1.7,3.6,2c-1,0.2-2.8-0.3-2.8-0.3c0,0-5.2-3.2-5.5-3.7
			c-1.1,0.2-1.1,0.2-1.4,0.1l0-0.5c-0.8-0.6-0.8-0.6-0.8-1.1c-3.5,2.7-2.8,4.2-2.8,4.3c0.2,0.1,0.2,0.1,1,0.1l0.1,0.2
			c-0.7,0.7-1.9,0.7-2.4,1.6c0.2,0.2,0.2,0.2,2.8,1.3c0.1,1.1,0.1,1.1,0.1,1.3c-0.5,0.4-2.6-0.5-3.1-0.8c0-0.3,0-0.5,0-0.8
			c-3.3-0.4-2.3,2.8-1.8,4.5c-0.3,0.4-0.6,0.6-0.8,1c0.5,0.9,2.1,1.1,2.6,1.1c1.3,0.1,1.3,0.4,1,2.1l0.2,0.1c1.1-0.5,1.8-1.7,3-2.1
			c0.3-0.1,1.6-0.1,1.6,0.6c0,1.1-1.2,1.5-1.6,2.3c1.3,0.6,2-0.6,3-0.9c-0.2,1-0.7,1.8-0.8,2.8c2.8,1.9,5.2-3.9,7.4-1.1
			c-0.1,0.1-0.1,0.1-1.3,0.6l0,0.3c1.4-0.1,2.2-0.6,2.5-0.8c0.8-0.6,1.2-1.5,1.9-2.1c1.1-0.8,1.5-1.1,3.5-1.5
			c0.2,0.3,0.6,0.5,0.9,0.8c-1.6,0.9-3.6,0.7-4.9,2.1c0,0.2,0.1,0.4,0.1,0.5c1.8,0.2,3.5-0.1,5.3-0.1c2.7,0,5.3,0.9,8,1.1
			c0.8,0,1.7-0.1,2.5,0c-0.2-0.1-0.4-0.2-0.5-0.2c0.3,0,1,0,1.5-0.1c0.1,0,3.8-2.8,3.1-3.7l0.1-0.2l-0.1-0.2
			c-0.7,0.1-1.4,0.6-2.2,0.6c0-0.6,0.6-0.9,0.7-1.5c-0.7-0.9-1.8-0.8-2.6-1.2c1-0.7,2.7-0.4,3.3-1.8l-0.4-0.2c0.5-1.1,2-0.6,2.5-1.7
			c0.5-1.1,0.5-1.2,0.4-1.7c-0.8-0.1-0.9-0.1-1.2-0.3l0,0l0,0l0,0l0,0l0,0l0,0c0,0,0,0-0.1-0.1c3.1,0.4,3.2,0.3,3.5,0.2
			c0.6-0.3,2.3-1.4,1.4-3.2c-0.2-0.4-3.3-0.2-3.9,1.1c-0.5,1-1.8,1.3-2.2,1.2c-0.1-2-0.1-2,3.8-3.6c0.5-0.2,0.5-0.2,0.7-0.5
			c-0.4-0.4-0.1-1.1-0.4-1.5c-0.4-0.5-1.1-0.6-1.5-1.2L823,562c1-0.4,2.8-1.7,3.1-2.1c-0.1-0.2-0.1-0.2,2.9-3.6
			c2.4,0.5,3.9,0.8,4,0.8c0.9,0.1,1.1,0.1,2.8-2.1l0.1,0.5c4.4,0.6,4.4,0.6,5.1,0.9c-0.1,0.2-0.3,0.4-0.4,0.5
			c-4.7-0.7-4.7-0.7-5.5-0.1c0.1,0.2,0.1,0.5,0.2,0.6c1.7,0.9,3.7,0.6,5.4,1.4c-3.2,1.5-8.6-3.1-10.1,1.4c0.1,0.2,0.2,0.4,0.3,0.6
			c0.4,0.1,0.9,0.3,1.2,0.5c-5.9,4.8-0.5,6.4-0.4,6.4c2.7,0.7,5.5-0.4,8.2-0.1l0.3,0.3c-2.4,0.6-5,0.3-7.4,1c0,0.2-0.1,0.5-0.1,0.7
			c3.1,3.6,3.1,3.6,11.1,3.8c-0.6,0.9-1.8,1.1-2.4,1.9c0,0,1.4,1.1,2.9,2c-0.8,0.4-1.5,0.9-2.1,1.9c-4.1-0.6-4.4-0.3-5,0.4
			c0,0.2,0,0.3,0,0.5c-0.8-0.1-1.4,0-1.9,0.1c0.5-1.8,1-5.5-3.4-6.4c-1.1-4.3-6.2-1.9-7.2-0.4c-2.5,3.6-2.5,3.6-1.8,4.6
			c0.3,0.4,0.5,1.8,0.4,2.1c-1,2.6-3.3,4.6-3.2,7.7c0.1,1.7,0.6,1.9,5.2,3.3c-0.1,0.2-0.3,0.4-0.4,0.6c-1.4,0.3-3.2-0.1-5.4-1.1
			c0.9,2.8-2.1,2.7-2.2,2.7c-0.2-0.1-0.4-0.3-0.6-0.4c-0.4-1.5,1.1-2.8,0.4-4.3c-0.9-2-3-2.8-4.3-4.3c-0.2,0-0.5,0-0.7,0.1
			c-3-2.6-14-2.2-15.3,1.3c0.1,0.2,0.2,0.5,0.4,0.7c-0.2,0.1-0.4,0.3-0.6,0.4c0,0.2,0.1,0.5,0.1,0.7c0.8,0.2,1.3,0.3,3.8-0.1
			c0,0.2,0.1,0.5,0.2,0.7c-0.4,0.3-1,0.7-1.4,1.1c1.1,4.5,6.6-1.6,9.9-0.1c-2.8,1.8-2.8,1.8-3.1,2.4c0.1,0.4,0.2,1,0.1,1.5
			c-2.6,0.9-5.1-3.1-7.5-0.5c0.1,0.2,0.2,0.4,0.2,0.6c0.4,0.1,0.9,0.3,1.3,0.5c-1.2,1.4-3.3,0.6-4.6,2c0.2,0.3,0.6,0.7,0.9,0.9
			l0.1,0.1l0,0l0,0l0,0l0,0l0,0l0,0l0,0c3.7,3.3,3.9,3.2,6.1,2.6c5.2-1.5,5.2-1.5,6-1.3c0,0.2,0.1,0.5,0.1,0.7
			c-17.2,5.1-15.9-3-15.8-3.1c1-1.9,0.6-4,1.2-5.9c-5.2-4.3-6.8-2.4-10.7,2.1c0.7,0.6,0.8,0.7,1.1,1.9c-1.2,1.1-1.7,1.5-3.4-0.2
			c-1.8-1.9-11.1-5-15.5,1.4C766.2,595.9,766.5,597.1,771.4,594.8z M812.9,554.5l-0.1-0.2c0.7-0.6,1.1-0.9,1.1-1.1
			c0.5,0.1,1,0.2,1.5,0.3c0.2,0.2,0.4,0.4,0.5,0.7C815.1,555.2,813.2,554.6,812.9,554.5z M836.7,553.7c0.3-0.4,0.6-0.8,0.9-1.3
			c2.4,0.5,3.7,0.8,4.6,1.8C839.4,553.6,837.7,553.6,836.7,553.7z M846,596.8c0.9,0.1,1,0.2,1.2,0.9l-0.1,0c0,0-3.2-0.4-3.7-0.3
			l-0.1,0l0,0C843.6,596.7,846,596.8,846,596.8z"/>
	</g>
</g>
</svg>
